<svg width="24" height="28" viewBox="0 0 24 28" fill="none" xmlns="http://www.w3.org/2000/svg">
<path d="M0 24.6C0 25.275 0.268133 25.9223 0.745413 26.3996C1.22269 26.8769 1.87002 27.145 2.545 27.145H21.205C21.88 27.145 22.5273 26.8769 23.0046 26.3996C23.4819 25.9223 23.75 25.275 23.75 24.6V10.179H0V24.6ZM16.964 14.208C16.9645 14.0395 17.0317 13.878 17.1509 13.7589C17.27 13.6397 17.4315 13.5725 17.6 13.572H19.721C19.8895 13.5725 20.051 13.6397 20.1701 13.7589C20.2893 13.878 20.3565 14.0395 20.357 14.208V16.329C20.3565 16.4975 20.2893 16.659 20.1701 16.7781C20.051 16.8973 19.8895 16.9645 19.721 16.965H17.6C17.4315 16.9645 17.27 16.8973 17.1509 16.7781C17.0317 16.659 16.9645 16.4975 16.964 16.329V14.208ZM16.964 20.994C16.9645 20.8255 17.0317 20.664 17.1509 20.5449C17.27 20.4257 17.4315 20.3585 17.6 20.358H19.721C19.8895 20.3585 20.051 20.4257 20.1701 20.5449C20.2893 20.664 20.3565 20.8255 20.357 20.994V23.115C20.3565 23.2835 20.2893 23.445 20.1701 23.5641C20.051 23.6833 19.8895 23.7505 19.721 23.751H17.6C17.4315 23.7505 17.27 23.6833 17.1509 23.5641C17.0317 23.445 16.9645 23.2835 16.964 23.115V20.994ZM10.178 14.208C10.1785 14.0395 10.2457 13.878 10.3649 13.7589C10.484 13.6397 10.6455 13.5725 10.814 13.572H12.935C13.1035 13.5725 13.265 13.6397 13.3841 13.7589C13.5033 13.878 13.5705 14.0395 13.571 14.208V16.329C13.5705 16.4975 13.5033 16.659 13.3841 16.7781C13.265 16.8973 13.1035 16.9645 12.935 16.965H10.815C10.6465 16.9645 10.485 16.8973 10.3659 16.7781C10.2467 16.659 10.1795 16.4975 10.179 16.329L10.178 14.208ZM10.178 20.994C10.1785 20.8255 10.2457 20.664 10.3649 20.5449C10.484 20.4257 10.6455 20.3585 10.814 20.358H12.935C13.1035 20.3585 13.265 20.4257 13.3841 20.5449C13.5033 20.664 13.5705 20.8255 13.571 20.994V23.115C13.5705 23.2835 13.5033 23.445 13.3841 23.5641C13.265 23.6833 13.1035 23.7505 12.935 23.751H10.815C10.6465 23.7505 10.485 23.6833 10.3659 23.5641C10.2467 23.445 10.1795 23.2835 10.179 23.115L10.178 20.994ZM3.393 14.208C3.39353 14.0395 3.4607 13.878 3.57986 13.7589C3.69902 13.6397 3.86048 13.5725 4.029 13.572H6.15C6.31852 13.5725 6.47998 13.6397 6.59914 13.7589C6.7183 13.878 6.78547 14.0395 6.786 14.208V16.329C6.78547 16.4975 6.7183 16.659 6.59914 16.7781C6.47998 16.8973 6.31852 16.9645 6.15 16.965H4.029C3.86048 16.9645 3.69902 16.8973 3.57986 16.7781C3.4607 16.659 3.39353 16.4975 3.393 16.329V14.208ZM3.393 20.994C3.39353 20.8255 3.4607 20.664 3.57986 20.5449C3.69902 20.4257 3.86048 20.3585 4.029 20.358H6.15C6.31852 20.3585 6.47998 20.4257 6.59914 20.5449C6.7183 20.664 6.78547 20.8255 6.786 20.994V23.115C6.78547 23.2835 6.7183 23.445 6.59914 23.5641C6.47998 23.6833 6.31852 23.7505 6.15 23.751H4.029C3.86048 23.7505 3.69902 23.6833 3.57986 23.5641C3.4607 23.445 3.39353 23.2835 3.393 23.115V20.994ZM21.205 3.394H18.661V0.848C18.6602 0.62334 18.5706 0.408107 18.4118 0.249247C18.2529 0.0903871 18.0377 0.000790601 17.813 0L16.113 0C15.8883 0.000790601 15.6731 0.0903871 15.5142 0.249247C15.3554 0.408107 15.2658 0.62334 15.265 0.848V3.393H8.482V0.848C8.48121 0.62334 8.39161 0.408107 8.23275 0.249247C8.07389 0.0903871 7.85866 0.000790601 7.634 0L5.934 0C5.70934 0.000790601 5.49411 0.0903871 5.33525 0.249247C5.17639 0.408107 5.08679 0.62334 5.086 0.848V3.393H2.545C1.87002 3.393 1.22269 3.66113 0.745413 4.13841C0.268133 4.61569 0 5.26302 0 5.938L0 8.482H23.75V5.938C23.75 5.26302 23.4819 4.61569 23.0046 4.13841C22.5273 3.66113 21.88 3.393 21.205 3.393V3.394Z" fill="black"/>
</svg>
