<svg width="18" height="19" viewBox="0 0 18 19" fill="none" xmlns="http://www.w3.org/2000/svg">
<path d="M8.98705 1.71661e-05C4.04029 1.71661e-05 0 4.04026 0 9.01297C0 13.9857 4.04024 18.0259 9.01295 18.0259C13.9856 18.0259 18 13.9857 18 9.01297C18 4.04026 13.9598 1.71661e-05 8.98705 1.71661e-05ZM15.3324 9.81584H16.3683C16.2129 11.2662 15.6431 12.5872 14.7625 13.6749L14.0374 12.9497C13.7266 12.639 13.2345 12.639 12.9238 12.9497C12.613 13.2604 12.6131 13.7525 12.9238 14.0633L13.649 14.7885C12.5612 15.669 11.2404 16.2388 9.78993 16.3942V15.3583C9.78993 14.918 9.42735 14.5555 8.9871 14.5555C8.54683 14.5555 8.18427 14.918 8.18427 15.3583V16.3942C6.73395 16.2388 5.41295 15.669 4.32523 14.7885L5.05041 14.0633C5.36114 13.7525 5.36114 13.2605 5.05041 12.9497C4.73967 12.639 4.24757 12.639 3.93683 12.9497L3.21165 13.6749C2.33112 12.5871 1.76134 11.2663 1.60594 9.81584H2.64182C3.08208 9.81584 3.44465 9.45327 3.44465 9.01301C3.44465 8.57276 3.08207 8.21018 2.64182 8.21018H1.60594C1.76131 6.75987 2.33112 5.43887 3.21165 4.35114L3.93683 5.07632C4.0922 5.23169 4.29941 5.30937 4.50661 5.30937C4.71383 5.30937 4.92104 5.23169 5.0764 5.07632C5.38713 4.76559 5.38713 4.27349 5.0764 3.96275L4.35122 3.23757C5.43899 2.35704 6.75976 1.78725 8.21026 1.63186V2.66774C8.21026 3.108 8.57284 3.47057 9.01309 3.47057C9.45335 3.47057 9.81592 3.10799 9.81592 2.66774V1.63186C11.2662 1.78722 12.5872 2.35704 13.675 3.23757L12.9498 3.96275C12.639 4.27348 12.639 4.76558 12.9498 5.07632C13.1051 5.23169 13.3124 5.30937 13.5196 5.30937C13.7268 5.30937 13.934 5.23169 14.0893 5.07632L14.8145 4.35114C15.6951 5.43891 16.2648 6.75968 16.4202 8.21018H15.3844C14.9441 8.21018 14.5815 8.57276 14.5815 9.01301C14.5295 9.45328 14.8921 9.81584 15.3323 9.81584H15.3324Z" fill="white"/>
<path d="M12.1467 8.21003H9.78987V5.30936C9.78987 4.86909 9.42729 4.50653 8.98704 4.50653C8.54677 4.50653 8.1842 4.86911 8.1842 5.30936V9.01286C8.1842 9.45313 8.54679 9.81569 8.98704 9.81569H12.1467C12.587 9.81569 12.9496 9.45311 12.9496 9.01286C12.9496 8.57261 12.587 8.21003 12.1467 8.21003Z" fill="white"/>
</svg>
