<svg width="30" height="24" viewBox="0 0 30 24" fill="none" xmlns="http://www.w3.org/2000/svg">
<path d="M21.49 8.265C21.49 3.698 16.681 0 10.745 0C4.809 0 0 3.699 0 8.265C0.0286592 10.0405 0.730255 11.7389 1.963 13.017C1.48664 14.0405 0.86377 14.9891 0.114 15.833C0.0583195 15.8919 0.0213009 15.966 0.00760012 16.0459C-0.00610068 16.1257 0.00412811 16.2079 0.037 16.282C0.067582 16.3565 0.119927 16.42 0.187189 16.4642C0.254452 16.5085 0.333501 16.5314 0.414 16.53C2.03019 16.5146 3.61311 16.069 5 15.239C6.79394 16.0988 8.75966 16.5403 10.749 16.53C16.68 16.53 21.49 12.832 21.49 8.265ZM27.79 19.63C29.0234 18.3523 29.7251 16.6537 29.753 14.878C29.753 11.422 26.989 8.462 23.074 7.228C23.1198 7.57209 23.1422 7.91888 23.141 8.266C23.141 13.737 17.577 18.184 10.741 18.184C10.1936 18.1796 9.64685 18.1463 9.103 18.084C10.73 21.054 14.553 23.141 19.003 23.141C20.995 23.1549 22.9638 22.7133 24.759 21.85C26.1447 22.6793 27.7262 23.1249 29.341 23.141C29.4213 23.1415 29.4999 23.1182 29.567 23.074C29.6341 23.0299 29.6866 22.9669 29.718 22.893C29.7505 22.8188 29.7605 22.7368 29.7468 22.657C29.7331 22.5772 29.6963 22.5031 29.641 22.444C28.8899 21.6018 28.2669 20.6536 27.792 19.63H27.79Z" fill="black"/>
</svg>
