<svg width="50" height="50" viewBox="0 0 50 50" fill="none" xmlns="http://www.w3.org/2000/svg">
<path d="M30.269 10.394C32.4408 10.8178 34.4368 11.8799 36.0014 13.4446C37.5661 15.0093 38.6283 17.0052 39.052 19.177M30.269 1.5C34.7814 2.00133 38.9893 4.02209 42.2017 7.23048C45.4141 10.4389 47.4401 14.6442 47.947 19.156M45.723 36.9V43.571C45.7255 44.1902 45.5987 44.8032 45.3506 45.3705C45.1026 45.9379 44.7387 46.4472 44.2825 46.8658C43.8262 47.2845 43.2875 47.6032 42.7009 47.8016C42.1143 48 41.4927 48.0737 40.876 48.018C34.0336 47.2747 27.4609 44.9368 21.686 41.192C16.3133 37.7779 11.7581 33.2228 8.34403 27.85C4.58619 22.0489 2.24771 15.4442 1.51803 8.571C1.46249 7.95613 1.5356 7.33643 1.73269 6.75136C1.92978 6.16629 2.24653 5.62866 2.66278 5.17272C3.07903 4.71677 3.58566 4.35249 4.15041 4.10307C4.71516 3.85365 5.32565 3.72455 5.94303 3.724H12.614C13.6932 3.7134 14.7394 4.0956 15.5576 4.79935C16.3758 5.50311 16.9101 6.48038 17.061 7.549C17.3422 9.68469 17.8642 11.7817 18.617 13.8C18.9163 14.5958 18.9812 15.4608 18.804 16.2924C18.6268 17.124 18.2148 17.8874 17.617 18.492L14.793 21.316C17.9583 26.8812 22.5666 31.4892 28.132 34.654L30.956 31.83C31.5607 31.2322 32.324 30.8203 33.1556 30.643C33.9872 30.4658 34.8522 30.5307 35.648 30.83C37.6653 31.5829 39.7613 32.1053 41.896 32.387C42.9765 32.5388 43.9634 33.0825 44.6691 33.9146C45.3747 34.7468 45.7498 35.8093 45.723 36.9Z" stroke="white" stroke-width="3" stroke-linecap="round" stroke-linejoin="round"/>
</svg>
