<svg width="38" height="54" viewBox="0 0 38 54" fill="none" xmlns="http://www.w3.org/2000/svg">
<path d="M18.788 5.22436e-06C16.3202 -0.00183573 13.8763 0.482874 11.596 1.42641C9.31567 2.36994 7.24377 3.75378 5.49878 5.49878C3.75378 7.24377 2.36994 9.31567 1.42641 11.596C0.482874 13.8763 -0.00183573 16.3202 5.22436e-06 18.788C5.22436e-06 32.879 18.788 53.68 18.788 53.68C18.788 53.68 37.576 32.88 37.576 18.788C37.5778 16.3202 37.0931 13.8763 36.1496 11.596C35.2061 9.31567 33.8222 7.24377 32.0772 5.49878C30.3322 3.75378 28.2603 2.36994 25.98 1.42641C23.6997 0.482874 21.2558 -0.00183573 18.788 5.22436e-06ZM18.788 25.5C17.4611 25.4996 16.164 25.1058 15.0609 24.3683C13.9577 23.6309 13.098 22.5829 12.5904 21.3569C12.0828 20.1309 11.9501 18.7819 12.209 17.4805C12.468 16.179 13.107 14.9836 14.0453 14.0453C14.9836 13.107 16.179 12.468 17.4805 12.209C18.7819 11.9501 20.1309 12.0828 21.3569 12.5904C22.5829 13.098 23.6309 13.9577 24.3683 15.0609C25.1058 16.164 25.4996 17.4611 25.5 18.788C25.5 20.5681 24.7929 22.2754 23.5341 23.5341C22.2754 24.7929 20.5681 25.5 18.788 25.5Z" fill="white"/>
</svg>
