<svg width="27" height="27" viewBox="0 0 27 27" fill="none" xmlns="http://www.w3.org/2000/svg">
<path d="M13.201 13.7247C13.5557 13.7247 13.8432 13.4372 13.8432 13.0825C13.8432 12.7277 13.5557 12.4402 13.201 12.4402C12.8463 12.4402 12.5587 12.7277 12.5587 13.0825C12.5587 13.4372 12.8463 13.7247 13.201 13.7247Z" fill="#FA7C00"/>
<path d="M13.2505 4.40698C8.38901 4.40698 4.36743 8.36927 4.36743 13.2505C4.36743 18.1614 8.38901 22.0446 13.2505 22.0446C18.1119 22.0446 22.1335 18.1515 22.1335 13.2505C22.1335 8.35939 18.1119 4.40698 13.2505 4.40698ZM13.2505 20.2858C9.38699 20.2858 6.26459 17.0745 6.26459 13.2307C6.26459 9.36726 9.33759 6.17569 13.2505 6.17569C17.1634 6.17569 20.2364 9.36726 20.2364 13.2307C20.2364 17.0745 17.114 20.2858 13.2505 20.2858Z" fill="#FA7C00"/>
<path d="M14.2583 13.0923C14.2583 13.201 14.2484 13.2998 14.2385 13.4085H19.3075C19.3075 13.3986 19.3075 13.3789 19.3075 13.369C19.3075 13.1714 19.3075 12.9737 19.2976 12.7761H14.2385C14.2484 12.8848 14.2583 12.9836 14.2583 13.0923Z" fill="#FA7C00"/>
<path d="M26.2341 12.7761H22.756C22.756 12.9836 22.7659 13.1911 22.7659 13.4085H26.2341C26.323 13.4085 26.3922 13.2702 26.3922 13.0923C26.3922 12.9145 26.323 12.7761 26.2341 12.7761Z" fill="#FA7C00"/>
<path d="M12.1438 13.0923C12.1438 12.9836 12.1537 12.8848 12.1636 12.7761H7.0946C7.0946 12.786 7.0946 12.8058 7.0946 12.8156C7.0946 13.0133 7.0946 13.2109 7.10448 13.4085H12.1734C12.1438 13.3097 12.1438 13.201 12.1438 13.0923Z" fill="#FA7C00"/>
<path d="M0.158097 13.4085H3.63622C3.63622 13.201 3.62634 12.9935 3.62634 12.7761H0.158097C0.0691678 12.7761 0 12.9145 0 13.0923C0 13.2702 0.0691678 13.4085 0.158097 13.4085Z" fill="#FA7C00"/>
<path d="M13.2011 12.0055C13.3098 12.0055 13.4086 12.0154 13.5173 12.0253V6.94641C13.5074 6.94641 13.4876 6.94641 13.4777 6.94641C13.2801 6.94641 13.0825 6.94641 12.8849 6.95629V12.0253C12.9837 12.0154 13.0924 12.0055 13.2011 12.0055Z" fill="#FA7C00"/>
<path d="M12.8849 0.158096V3.63622C13.0924 3.63622 13.2999 3.62634 13.5173 3.62634V0.158096C13.5173 0.0691672 13.3789 0 13.2011 0C13.0232 0 12.8849 0.0691672 12.8849 0.158096Z" fill="#FA7C00"/>
<path d="M13.2011 14.1595C13.0924 14.1595 12.9936 14.1496 12.8849 14.1398V19.2087C12.8948 19.2087 12.9145 19.2087 12.9244 19.2087C13.122 19.2087 13.3197 19.2087 13.5173 19.1988V14.1299C13.4086 14.1595 13.3098 14.1595 13.2011 14.1595Z" fill="#FA7C00"/>
<path d="M13.5173 26.1452V22.6671C13.3098 22.6671 13.1023 22.677 12.8849 22.677V26.1452C12.8849 26.2342 13.0232 26.3033 13.2011 26.3033C13.3789 26.3033 13.5173 26.2342 13.5173 26.1452Z" fill="#FA7C00"/>
<path d="M12.4303 12.3316C12.5094 12.2525 12.5884 12.1833 12.6674 12.124L9.09052 8.54712C9.08064 8.557 9.07075 8.56688 9.06087 8.57676C8.92254 8.7151 8.78421 8.85343 8.64587 9.00165L12.2228 12.5786C12.2821 12.4896 12.3513 12.4106 12.4303 12.3316Z" fill="#FA7C00"/>
<path d="M13.9619 13.8333C13.8828 13.9124 13.8038 13.9816 13.7247 14.0408L17.3115 17.6276C17.3214 17.6178 17.3313 17.6079 17.3412 17.598C17.4795 17.4597 17.6179 17.3213 17.7562 17.1731L14.1793 13.5962C14.1101 13.6851 14.0409 13.7642 13.9619 13.8333Z" fill="#FA7C00"/>
<path d="M12.4303 13.8432C12.3513 13.7642 12.2821 13.6851 12.2228 13.6061L8.63599 17.1929C8.64587 17.2028 8.65575 17.2127 8.66563 17.2225C8.80396 17.3609 8.9423 17.4992 9.09052 17.6375L12.6674 14.0606C12.5884 13.9914 12.5094 13.9223 12.4303 13.8432Z" fill="#FA7C00"/>
<path d="M6.7883 6.24489L5.45436 4.91095C5.33579 4.79238 5.13817 4.79238 5.0196 4.91095C4.96031 4.97024 4.93066 5.04929 4.93066 5.12833C4.93066 5.20738 4.96031 5.28643 5.0196 5.34572L6.35353 6.67965C6.50175 6.53144 6.64008 6.3931 6.7883 6.24489Z" fill="#FA7C00"/>
<path d="M6.22499 19.6237L4.89105 20.9576C4.77248 21.0762 4.77248 21.2738 4.89105 21.3924C4.95034 21.4516 5.02939 21.4813 5.10844 21.4813C5.18749 21.4813 5.26653 21.4516 5.32582 21.3924L6.65976 20.0584C6.50166 19.9201 6.36333 19.7719 6.22499 19.6237Z" fill="#FA7C00"/>
<path d="M19.7817 20.1177L21.1157 21.4517C21.2342 21.5703 21.4319 21.5703 21.5504 21.4517C21.6097 21.3924 21.6394 21.3134 21.6394 21.2343C21.6394 21.1553 21.6097 21.0762 21.5504 21.0169L20.2165 19.683C20.0683 19.8312 19.9201 19.9794 19.7817 20.1177Z" fill="#FA7C00"/>
<path d="M13.9619 12.3215C14.0409 12.4006 14.1101 12.4796 14.1694 12.5587L17.7463 8.98176C17.7364 8.97187 17.7265 8.96199 17.7167 8.95211C17.5783 8.81378 17.44 8.67544 17.2918 8.53711L13.7148 12.114C13.8038 12.1832 13.8828 12.2425 13.9619 12.3215Z" fill="#FA7C00"/>
<path d="M20.0388 6.68942L21.3727 5.35548C21.4913 5.23691 21.4913 5.03929 21.3727 4.92072C21.3134 4.86143 21.2344 4.83179 21.1553 4.83179C21.0763 4.83179 20.9972 4.86143 20.9379 4.92072L19.604 6.25465C19.7621 6.39299 19.9004 6.5412 20.0388 6.68942Z" fill="#FA7C00"/>
</svg>
