<svg width="20" height="16" viewBox="0 0 20 16" fill="none" xmlns="http://www.w3.org/2000/svg">
<path d="M17.1 3.86274C17.112 4.03174 17.112 4.20174 17.112 4.37074C17.1222 5.83308 16.8418 7.28288 16.2871 8.63595C15.7323 9.98902 14.9143 11.2184 13.8805 12.2527C12.8467 13.287 11.6177 14.1056 10.2648 14.6609C8.91202 15.2163 7.46234 15.4973 6 15.4877C3.87279 15.4933 1.78927 14.8842 0 13.7337C0.313461 13.7681 0.628666 13.7842 0.944 13.7817C2.70261 13.7863 4.41149 13.1984 5.795 12.1127C4.97968 12.0979 4.18936 11.8287 3.53444 11.3428C2.87952 10.857 2.39271 10.1787 2.142 9.40274C2.38615 9.44123 2.63284 9.46128 2.88 9.46274C3.22689 9.46174 3.57227 9.41705 3.908 9.32974C3.02319 9.15096 2.22755 8.67138 1.65625 7.97248C1.08495 7.27357 0.773211 6.39844 0.774 5.49574V5.44774C1.31502 5.75129 1.92015 5.92261 2.54 5.94774C1.71055 5.3947 1.12346 4.54593 0.898588 3.57471C0.673717 2.60349 0.828021 1.58306 1.33 0.721744C2.31182 1.92913 3.53642 2.91669 4.92441 3.62042C6.31239 4.32415 7.83278 4.72832 9.387 4.80674C9.32288 4.51097 9.28937 4.20938 9.287 3.90674C9.28785 3.12312 9.52409 2.35781 9.96508 1.71005C10.4061 1.06229 11.0315 0.561936 11.7602 0.273861C12.489 -0.0142147 13.2875 -0.0767279 14.0522 0.0944247C14.8169 0.265577 15.5126 0.662503 16.049 1.23374C16.9241 1.06512 17.7633 0.745703 18.529 0.289744C18.2373 1.19248 17.6265 1.95792 16.811 2.44274C17.5867 2.35597 18.3451 2.15373 19.061 1.84274C18.5259 2.62152 17.8623 3.30444 17.1 3.86274Z" fill="white"/>
</svg>
