<svg width="28" height="17" viewBox="0 0 28 17" fill="none" xmlns="http://www.w3.org/2000/svg">
<path d="M26.5821 5.39963C26.8719 4.39177 27.334 3.44173 27.9481 2.59163H23.2851C20.4984 0.845302 17.2642 -0.0534816 13.9761 0.00463112C10.6058 -0.0733917 7.28617 0.83593 4.42609 2.62063H0.0550885C0.665533 3.45926 1.1257 4.39754 1.41509 5.39363C0.302626 6.86283 -0.183583 8.7124 0.0625587 10.5387C0.3087 12.3651 1.26721 14.0199 2.72893 15.1422C4.19065 16.2645 6.03693 16.7631 7.86488 16.5291C9.69283 16.2952 11.3541 15.3478 12.4861 13.8936L13.9681 16.1206L15.4681 13.8706C16.1456 14.7428 17.0252 15.4367 18.0311 15.8926C19.2863 16.4706 20.6847 16.6632 22.0493 16.4461C23.414 16.2289 24.6836 15.6119 25.6975 14.673C26.7113 13.7341 27.4239 12.5155 27.7449 11.1715C28.066 9.82746 27.9811 8.41841 27.5011 7.12263C27.2731 6.50455 26.9561 5.92308 26.5601 5.39663L26.5831 5.40263L26.5821 5.39963ZM22.8971 14.7806C21.7173 15.221 20.4226 15.2456 19.227 14.8505C18.0313 14.4554 17.0062 13.6642 16.3211 12.6076C16.0817 12.2563 15.8853 11.8776 15.7361 11.4796C15.354 10.4444 15.2873 9.31905 15.5445 8.2459C15.8017 7.17275 16.3712 6.19991 17.1811 5.4503C17.9909 4.70069 19.0048 4.20795 20.0946 4.03434C21.1844 3.86072 22.3012 4.01403 23.3039 4.47488C24.3066 4.93573 25.1502 5.68345 25.7281 6.62356C26.306 7.56367 26.5923 8.65399 26.5508 9.75675C26.5093 10.8595 26.1419 11.9252 25.495 12.8192C24.848 13.7132 23.9506 14.3954 22.9161 14.7796H22.8961L22.8971 14.7806ZM11.6611 12.6496C10.9122 13.7553 9.79127 14.5553 8.50226 14.9042C7.21325 15.253 5.84183 15.1275 4.63754 14.5505C3.43326 13.9735 2.47616 12.9833 1.94039 11.7601C1.40462 10.5369 1.32579 9.16198 1.71825 7.88557C2.11071 6.60916 2.94837 5.51606 4.07881 4.80517C5.20925 4.09429 6.55734 3.81287 7.87778 4.01212C9.19822 4.21137 10.4032 4.87805 11.2736 5.89085C12.1439 6.90365 12.6217 8.19525 12.6201 9.53063C12.6117 9.71719 12.5931 9.90314 12.5641 10.0876C12.4825 11.0092 12.1732 11.8961 11.6641 12.6686L11.6611 12.6496ZM3.50009 9.45663C3.4989 10.1393 3.70019 10.8069 4.07849 11.3751C4.45679 11.9433 4.99511 12.3866 5.62536 12.6488C6.25561 12.9111 6.94948 12.9805 7.61919 12.8483C8.2889 12.7162 8.90438 12.3884 9.38777 11.9064C9.87116 11.4244 10.2007 10.8099 10.3348 10.1405C10.4689 9.47122 10.4015 8.77716 10.1411 8.14615C9.8807 7.51514 9.43901 6.97554 8.87189 6.59559C8.30478 6.21565 7.63772 6.01242 6.95509 6.01163C6.04066 6.01215 5.16368 6.37496 4.51614 7.02062C3.86861 7.66629 3.50326 8.54221 3.50009 9.45663ZM17.5001 9.45663C17.4995 10.1387 17.7012 10.8056 18.0797 11.373C18.4581 11.9403 18.9964 12.3827 19.6263 12.6442C20.2562 12.9057 20.9495 12.9744 21.6186 12.8418C22.2876 12.7092 22.9022 12.3811 23.3848 11.8991C23.8673 11.4172 24.1961 10.8029 24.3295 10.134C24.4629 9.46516 24.3949 8.77176 24.1342 8.14153C23.8735 7.51129 23.4317 6.97254 22.8647 6.59342C22.2978 6.21429 21.6311 6.01183 20.9491 6.01163C20.0352 6.01216 19.1589 6.37516 18.5123 7.02099C17.8657 7.66682 17.5017 8.54276 17.5001 9.45663ZM4.69009 9.45663C5.28847 9.45888 5.86152 9.69846 6.28344 10.1228C6.70537 10.5471 6.94171 11.1215 6.94058 11.7199C6.93946 12.3183 6.70096 12.8917 6.27744 13.3145C5.85392 13.7372 5.27998 13.9746 4.68159 13.9746C4.0832 13.9746 3.50926 13.7372 3.08574 13.3145C2.66222 12.8917 2.42372 12.3183 2.42259 11.7199C2.42147 11.1215 2.6578 10.5471 3.07973 10.1228C3.50166 9.69846 4.0747 9.45888 4.67309 9.45663H4.69009ZM18.6751 9.45663C19.2727 9.45888 19.845 9.69814 20.2663 10.1219C20.6877 10.5456 20.9237 11.1193 20.9226 11.7169C20.9215 12.3145 20.6833 12.8872 20.2603 13.3094C19.8374 13.7315 19.2642 13.9686 18.6666 13.9686C18.069 13.9686 17.4958 13.7315 17.0729 13.3094C16.6499 12.8872 16.4117 12.3145 16.4106 11.7169C16.4095 11.1193 16.6455 10.5456 17.0669 10.1219C17.4882 9.69814 18.0605 9.45888 18.6581 9.45663H18.6751ZM13.9651 1.22463C16.2909 1.1867 18.5979 1.64701 20.7311 2.57463C19.975 2.59318 19.2269 2.73435 18.5161 2.99263C17.2617 3.46016 16.1671 4.27625 15.3608 5.34486C14.5546 6.41347 14.0703 7.69014 13.9651 9.02463C13.8366 7.28779 13.0653 5.66121 11.8018 4.4626C10.5382 3.26399 8.87329 2.57943 7.13209 2.54263C9.28096 1.64885 11.5889 1.20047 13.9161 1.22463H13.9651Z" fill="white"/>
</svg>
