<svg width="19" height="19" viewBox="0 0 19 19" fill="none" xmlns="http://www.w3.org/2000/svg">
<path d="M9.06475 4.41675C8.14566 4.41675 7.24721 4.68929 6.48302 5.19991C5.71882 5.71053 5.1232 6.43629 4.77148 7.28542C4.41976 8.13455 4.32773 9.0689 4.50704 9.97034C4.68635 10.8718 5.12893 11.6998 5.77882 12.3497C6.42872 12.9996 7.25674 13.4422 8.15817 13.6215C9.0596 13.8008 9.99395 13.7087 10.8431 13.357C11.6922 13.0053 12.418 12.4097 12.9286 11.6455C13.4392 10.8813 13.7118 9.98284 13.7118 9.06375C13.7128 8.4532 13.5933 7.84845 13.3602 7.28417C13.127 6.7199 12.7847 6.2072 12.353 5.77547C11.9213 5.34375 11.4086 5.0015 10.8443 4.76834C10.2801 4.53517 9.6753 4.4157 9.06475 4.41675ZM9.06475 12.0837C8.46721 12.0837 7.88309 11.9065 7.38627 11.5746C6.88945 11.2426 6.50224 10.7707 6.27361 10.2186C6.04499 9.66653 5.98522 9.05906 6.10187 8.47301C6.21852 7.88697 6.50634 7.34868 6.92893 6.92623C7.35153 6.50377 7.88991 6.21613 8.476 6.09968C9.06208 5.98322 9.66953 6.04319 10.2215 6.272C10.7735 6.5008 11.2453 6.88817 11.5771 7.3851C11.9089 7.88203 12.0859 8.46621 12.0858 9.06375C12.0842 9.86439 11.7653 10.6318 11.1991 11.1978C10.6329 11.7639 9.86539 12.0824 9.06475 12.0837ZM14.9847 4.22575C14.9849 4.44036 14.9214 4.65019 14.8023 4.82867C14.6831 5.00715 14.5136 5.14625 14.3153 5.22833C14.1171 5.31041 13.8989 5.33178 13.6884 5.28974C13.478 5.2477 13.2847 5.14414 13.1332 4.99218C12.9816 4.84022 12.8786 4.6467 12.8372 4.43613C12.7957 4.22557 12.8177 4.00744 12.9003 3.80937C12.983 3.61131 13.1225 3.44223 13.3013 3.32356C13.4801 3.20489 13.6901 3.14196 13.9047 3.14275C14.047 3.14275 14.1878 3.17081 14.3191 3.22532C14.4505 3.27983 14.5698 3.35973 14.6702 3.46043C14.7706 3.56113 14.8502 3.68065 14.9043 3.81215C14.9585 3.94365 14.9861 4.08454 14.9858 4.22675L14.9847 4.22575ZM18.0617 5.32575C18.0923 3.91587 17.5664 2.55067 16.5977 1.52575C15.5721 0.562972 14.2112 0.0384327 12.8048 0.06375C11.3048 -0.02125 6.82375 -0.02125 5.32775 0.06375C3.91895 0.035097 2.55493 0.559168 1.52775 1.52375C0.560789 2.54972 0.0351028 3.91421 0.06375 5.32375C-0.02125 6.82375 -0.02125 11.3047 0.06375 12.8007C0.0331601 14.2106 0.55912 15.5758 1.52775 16.6007C2.55458 17.5643 3.91685 18.0892 5.32475 18.0637C6.82475 18.1487 11.3057 18.1487 12.8018 18.0637C14.2116 18.0943 15.5768 17.5684 16.6017 16.5998C17.567 15.5727 18.0924 14.2089 18.0658 12.7998C18.1507 11.2998 18.1507 6.82275 18.0658 5.32675L18.0617 5.32575ZM16.1287 14.4048C15.9749 14.7948 15.7424 15.149 15.4458 15.4454C15.1493 15.7418 14.7949 15.9741 14.4047 16.1278C13.2118 16.6007 10.3807 16.4918 9.06275 16.4918C7.74475 16.4918 4.90975 16.5968 3.72075 16.1278C3.33209 15.9732 2.97928 15.7405 2.68412 15.4442C2.38896 15.1478 2.15774 14.794 2.00475 14.4048C1.53175 13.2118 1.64075 10.3807 1.64075 9.06275C1.64075 7.74475 1.53075 4.90975 2.00475 3.72075C2.15796 3.33128 2.38949 2.9774 2.68501 2.68102C2.98052 2.38465 3.33372 2.15209 3.72275 1.99775C4.91575 1.52475 7.74675 1.63375 9.06475 1.63375C10.3828 1.63375 13.2178 1.52875 14.4068 1.99775C14.7967 2.15152 15.1509 2.38382 15.4473 2.68022C15.7437 2.97662 15.976 3.3308 16.1297 3.72075C16.6027 4.91375 16.4937 7.74475 16.4937 9.06275C16.4937 10.3807 16.6038 13.2168 16.1287 14.4048Z" fill="white"/>
</svg>
