<svg width="18" height="18" viewBox="0 0 18 18" fill="none" xmlns="http://www.w3.org/2000/svg">
<path d="M10.9785 3.73904C11.7699 3.89322 12.4972 4.28014 13.0673 4.85025C13.6374 5.42035 14.0243 6.14767 14.1785 6.93904M10.9785 0.500044C12.6218 0.682731 14.1542 1.41869 15.324 2.58711C16.4939 3.75553 17.2318 5.28697 17.4165 6.93004M16.6065 13.393V15.823C16.6074 16.0486 16.5612 16.272 16.4708 16.4787C16.3804 16.6854 16.2479 16.8709 16.0816 17.0234C15.9154 17.1759 15.7191 17.292 15.5054 17.3643C15.2916 17.4366 15.0652 17.4634 14.8405 17.443C12.3485 17.1723 9.9547 16.3209 7.8515 14.957C5.89541 13.7141 4.23684 12.0559 2.9935 10.1C1.62404 7.98632 0.77201 5.57959 0.506502 3.07504C0.486378 2.85111 0.513088 2.62543 0.584934 2.41238C0.65678 2.19933 0.772188 2.00357 0.923815 1.83755C1.07544 1.67153 1.25997 1.53889 1.46565 1.44808C1.67133 1.35726 1.89366 1.31025 2.1185 1.31004H4.5485C4.94095 1.30631 5.32141 1.44518 5.61918 1.70083C5.91696 1.95649 6.1118 2.31155 6.1675 2.70004C6.2692 3.4786 6.45874 4.24314 6.7325 4.97904C6.84152 5.2689 6.86518 5.58394 6.80067 5.88683C6.73616 6.18972 6.58618 6.46777 6.3685 6.68804L5.3415 7.71604C6.49437 9.74348 8.17307 11.4222 10.2005 12.575L11.2325 11.547C11.4528 11.3294 11.7308 11.1794 12.0337 11.1149C12.3366 11.0504 12.6516 11.074 12.9415 11.183C13.6764 11.4573 14.4399 11.6475 15.2175 11.75C15.6102 11.8062 15.9686 12.0046 16.2248 12.3074C16.4809 12.6102 16.6161 12.9965 16.6065 13.393Z" fill="white"/>
<path d="M10.9785 3.73904C11.7699 3.89322 12.4972 4.28014 13.0673 4.85025C13.6374 5.42035 14.0243 6.14767 14.1785 6.93904M10.9785 0.500044C12.6218 0.682731 14.1542 1.41869 15.324 2.58711C16.4939 3.75553 17.2318 5.28697 17.4165 6.93004M16.6065 13.393V15.823C16.6074 16.0486 16.5612 16.272 16.4708 16.4787C16.3804 16.6854 16.2479 16.8709 16.0816 17.0234C15.9154 17.1759 15.7191 17.292 15.5054 17.3643C15.2916 17.4366 15.0652 17.4634 14.8405 17.443C12.3485 17.1723 9.9547 16.3209 7.8515 14.957C5.89541 13.7141 4.23684 12.0559 2.9935 10.1C1.62404 7.98632 0.77201 5.57959 0.506502 3.07504C0.486378 2.85111 0.513088 2.62543 0.584934 2.41238C0.65678 2.19933 0.772188 2.00357 0.923815 1.83755C1.07544 1.67153 1.25997 1.53889 1.46565 1.44808C1.67133 1.35726 1.89366 1.31025 2.1185 1.31004H4.5485C4.94095 1.30631 5.32141 1.44518 5.61918 1.70083C5.91696 1.95649 6.1118 2.31155 6.1675 2.70004C6.2692 3.4786 6.45874 4.24314 6.7325 4.97904C6.84152 5.2689 6.86518 5.58394 6.80067 5.88683C6.73616 6.18972 6.58618 6.46777 6.3685 6.68804L5.3415 7.71604C6.49437 9.74348 8.17307 11.4222 10.2005 12.575L11.2325 11.547C11.4528 11.3294 11.7308 11.1794 12.0337 11.1149C12.3366 11.0504 12.6516 11.074 12.9415 11.183C13.6764 11.4573 14.4399 11.6475 15.2175 11.75C15.6102 11.8062 15.9686 12.0046 16.2248 12.3074C16.4809 12.6102 16.6161 12.9965 16.6065 13.393Z" stroke="white" stroke-linecap="round" stroke-linejoin="round"/>
</svg>
