<svg width="16" height="16" viewBox="0 0 16 16" fill="none" xmlns="http://www.w3.org/2000/svg">
<path d="M11.8453 14.0275C11.8497 14.0361 11.8561 14.0434 11.864 14.0488L12.4891 14.2701H12.5028H12.5166L13.1416 14.0475C13.1485 14.041 13.1537 14.0329 13.1566 14.0238V12.9688H11.8453V14.0275Z" fill="#FA7C00"/>
<path d="M15.9329 11.86C15.7592 9.14487 11.5453 8.5761 11.3765 8.5561C10.7202 8.43859 10.414 7.90982 10.2727 7.50231C10.8972 6.74008 11.3516 5.85314 11.6053 4.90095C11.7091 4.52598 11.7621 4.13875 11.7628 3.74966C11.7628 3.6434 11.7628 3.53715 11.749 3.43215C12.1853 2.70337 12.1728 1.82333 12.0515 1.30706C12.014 1.14581 11.9353 0.807042 11.664 0.838293C11.0715 0.894545 9.88395 0.49953 9.47143 0.348274C6.93508 -0.684267 5.43753 0.874545 5.14376 1.21956C3.5012 1.83833 4.33498 4.93095 4.37623 5.06471C4.38698 5.10195 4.40624 5.13619 4.43249 5.16471C4.66117 6.08272 5.09401 6.9373 5.69879 7.66481C5.53503 8.03983 5.23252 8.45234 4.67375 8.55235C4.48999 8.5761 0.286071 9.14362 0.102314 11.85C-0.0221995 12.8338 -0.033105 13.8287 0.0698126 14.8151C0.115067 15.1398 0.274838 15.4376 0.520317 15.6549C0.765796 15.8722 1.08083 15.9946 1.40862 16.0001H14.6266C14.9537 15.9956 15.2678 15.8722 15.5105 15.653C15.7532 15.4338 15.9078 15.1337 15.9454 14.8088C16.0221 13.8272 16.018 12.8409 15.9329 11.86ZM10.7965 8.98487C10.7965 8.98487 9.36268 11.0399 9.35393 11.0524C9.34469 11.0677 9.33166 11.0803 9.31611 11.0891C9.30057 11.0979 9.28302 11.1025 9.26518 11.1025C9.24733 11.1025 9.22978 11.0979 9.21424 11.0891C9.19869 11.0803 9.18567 11.0677 9.17642 11.0524C9.17642 11.0524 8.5864 10.0824 8.5789 10.0724C8.52335 10.0009 8.4932 9.91294 8.4932 9.8224C8.4932 9.73186 8.52335 9.64389 8.5789 9.57239L10.0627 8.33359L10.7965 8.98487ZM8.06388 10.1749C8.11888 10.2724 8.4989 10.8987 8.4989 10.8987H7.62636C7.62636 10.8987 8.03388 10.2499 8.06388 10.1749ZM7.88887 9.21237L7.19009 8.62485C7.43678 8.69339 7.69159 8.72829 7.94762 8.72861C8.36995 8.72874 8.78631 8.62894 9.16267 8.43734L8.23889 9.21237C8.2295 9.22046 8.22072 9.22924 8.21264 9.23863C8.19002 9.26561 8.16915 9.294 8.15013 9.32363H7.97763C7.95861 9.294 7.93774 9.26561 7.91512 9.23863C7.90704 9.22924 7.89826 9.22046 7.88887 9.21237ZM6.1513 1.55832C6.45019 1.25868 6.8246 1.04551 7.23482 0.94141C7.64505 0.837313 8.0758 0.846172 8.48139 0.967048C8.51537 0.973028 8.54775 0.985975 8.57648 1.00508C8.60521 1.02418 8.62968 1.04902 8.64834 1.07803C8.667 1.10705 8.67946 1.13962 8.68492 1.17368C8.69038 1.20775 8.68874 1.24258 8.68008 1.27597C8.67143 1.30937 8.65596 1.34062 8.63464 1.36775C8.61333 1.39487 8.58663 1.4173 8.55622 1.4336C8.52582 1.44991 8.49237 1.45974 8.45798 1.46249C8.42359 1.46524 8.389 1.46084 8.35639 1.44957C7.39385 1.19706 6.78508 1.62457 6.50132 1.90959C6.47806 1.93298 6.4504 1.95155 6.41994 1.9642C6.38947 1.97686 6.3568 1.98336 6.32381 1.98334C6.27456 1.98338 6.22639 1.96887 6.18535 1.94164C6.14431 1.91441 6.11223 1.87566 6.09314 1.83026C6.07404 1.78486 6.06879 1.73483 6.07802 1.68645C6.08726 1.63807 6.11058 1.5935 6.14505 1.55832H6.1513ZM4.91875 5.05846L5.62628 4.45844L6.15755 4.81345C6.40756 4.98096 6.73883 4.8697 6.75133 4.53594L6.80383 4.12467C7.24136 4.4141 7.73968 4.59889 8.26014 4.66469C8.70083 4.72118 9.14726 4.71571 9.58644 4.64844C10.1627 4.56344 10.7465 4.40593 11.2115 4.03842C11.2115 4.03842 11.2528 4.01092 11.254 4.00342C11.2377 4.2621 11.1949 4.51844 11.1265 4.76845C10.7865 5.99975 10.1265 7.07979 9.33018 7.74107C8.38264 8.51985 6.95509 8.35484 6.09255 7.36605C5.53139 6.69816 5.12995 5.91109 4.91875 5.06471V5.05846ZM7.18509 13.2538C7.08747 13.0801 6.97848 12.9131 6.85883 12.7538L4.12622 9.16362C4.48499 9.08237 4.72625 9.04987 4.73875 9.04862H4.76L4.7675 9.06237L6.33006 11.2837C6.3703 11.3751 6.4326 11.455 6.51137 11.5163C6.59013 11.5776 6.6829 11.6184 6.78133 11.635C6.80422 11.6365 6.82719 11.6365 6.85008 11.635C6.94235 11.6319 7.0328 11.6085 7.11493 11.5664C7.19706 11.5242 7.26884 11.4644 7.3251 11.3912L7.3401 11.37C7.37114 11.3841 7.40475 11.3918 7.43885 11.3925L7.18509 13.2538ZM6.84758 11.1287C6.83258 11.1287 5.33127 8.97111 5.33127 8.97111L6.0688 8.33359L7.55261 9.57239C7.60816 9.64389 7.63831 9.73186 7.63831 9.8224C7.63831 9.91294 7.60816 10.0009 7.55261 10.0724C7.54136 10.0887 6.86133 11.1425 6.84758 11.14V11.1287ZM8.47264 15.4889H7.76762V15.4776C7.76688 15.0272 7.69948 14.5795 7.56761 14.1488L7.94262 11.3875H8.19263L8.65265 14.2626C8.53779 14.6651 8.4789 15.0815 8.47764 15.5001L8.47264 15.4889ZM9.00642 13.3563L8.69265 11.375C8.71684 11.3644 8.7392 11.35 8.75891 11.3325C8.75891 11.3325 8.79391 11.3887 8.80266 11.3975C8.86602 11.4787 8.94848 11.543 9.0427 11.5846C9.13691 11.6263 9.23996 11.644 9.34268 11.6362C9.43977 11.6149 9.53093 11.5724 9.60961 11.5117C9.68829 11.4509 9.75252 11.3735 9.7977 11.285L11.354 9.05737C11.4628 9.07362 11.7365 9.11987 12.094 9.20737L9.40768 12.75C9.2591 12.9448 9.12658 13.1513 9.01142 13.3675L9.00642 13.3563ZM13.6529 14.0163C13.6511 14.127 13.6152 14.2344 13.5501 14.3239C13.485 14.4134 13.3938 14.4806 13.2891 14.5163L12.6353 14.7501C12.5922 14.765 12.5471 14.7735 12.5016 14.7751C12.4564 14.7736 12.4117 14.7651 12.369 14.7501L12.3253 14.7363L11.709 14.5176C11.6043 14.4818 11.5131 14.4146 11.448 14.3251C11.3829 14.2356 11.347 14.1282 11.3453 14.0176V12.91C11.3453 12.7903 11.3928 12.6756 11.4774 12.5909C11.5621 12.5063 11.6768 12.4588 11.7965 12.4588H13.2066C13.3263 12.4588 13.441 12.5063 13.5257 12.5909C13.6103 12.6756 13.6579 12.7903 13.6579 12.91L13.6529 14.0163Z" fill="#FA7C00"/>
</svg>
