<svg width="12" height="11" viewBox="0 0 12 11" fill="none" xmlns="http://www.w3.org/2000/svg">
<path fill-rule="evenodd" clip-rule="evenodd" d="M10.6665 7.87882C9.87168 8.09572 9.07026 8.26018 8.26323 8.37118C8.05906 9.07536 7.78258 9.68686 7.4557 10.165C7.21486 10.5173 6.94552 10.7994 6.65733 11C8.43584 10.6584 9.91598 9.47403 10.6665 7.87882ZM0.520873 7.8722C1.26985 9.47047 2.75204 10.6578 4.5331 11C4.24491 10.7994 3.97556 10.5173 3.73472 10.165C3.40478 9.68228 3.12627 9.06364 2.92108 8.35081C2.12678 8.2388 1.32637 8.07943 0.520873 7.8722ZM7.70978 8.4389C7.53208 8.98829 7.3055 9.46894 7.04175 9.8554C6.69807 10.3585 6.29379 10.7001 5.84979 10.7958V8.54633C6.47352 8.54124 7.09318 8.5056 7.70978 8.4389ZM3.47454 8.42108C4.10031 8.49185 4.72199 8.53258 5.34063 8.5443V10.7958C4.89664 10.7001 4.49236 10.3585 4.14867 9.8554C3.88187 9.46487 3.65326 8.9781 3.47454 8.42108ZM8.13798 5.75458C8.12066 6.52597 8.02291 7.2556 7.86049 7.90937C7.1945 7.9888 6.52444 8.03106 5.84979 8.03717V5.75458H8.13798ZM3.05244 5.75458H5.34063V8.03462C4.67311 8.02189 4.00102 7.97403 3.32536 7.89053C3.16599 7.24134 3.06975 6.51833 3.05244 5.75458ZM11.1904 5.75458H8.64714C8.63085 6.49338 8.5443 7.19552 8.4002 7.83706C9.23014 7.71283 10.0535 7.53157 10.8697 7.29226L10.9063 7.28157C11.0682 6.79837 11.1665 6.28615 11.1904 5.75458ZM2.54328 5.75458H0C0.0239308 6.28666 0.122203 6.79939 0.284626 7.28259L0.316193 7.29124C1.14511 7.51782 1.96843 7.69297 2.78564 7.81619C2.6446 7.18075 2.55906 6.48523 2.54328 5.75458ZM2.78666 3.17872C1.97352 3.30295 1.1502 3.47963 0.316698 3.70876L0.284626 3.71741C0.122203 4.20112 0.0239308 4.71385 0 5.24542H2.54328C2.55906 4.51273 2.6446 3.81568 2.78666 3.17872ZM5.34063 2.95723V5.24542H3.05244C3.06975 4.47912 3.1665 3.75458 3.32638 3.10336C4.00509 3.01833 4.67617 2.96996 5.34063 2.95723ZM5.84979 2.95417C6.52648 2.95978 7.19603 3.00254 7.85845 3.08197C8.0219 3.73829 8.12016 4.47098 8.13798 5.24542H5.84979V2.95417ZM8.39868 3.15479C8.54328 3.79837 8.63085 4.50356 8.64714 5.24542H11.1904C11.1665 4.71385 11.0682 4.20163 10.9063 3.71843L10.8686 3.70723C10.057 3.46538 9.23371 3.28106 8.39868 3.15479ZM0.521386 3.12729C1.33096 2.91701 2.13137 2.75662 2.92261 2.64358C3.12729 1.9333 3.40529 1.3167 3.73472 0.83503C3.97556 0.482688 4.24491 0.200611 4.5331 0C2.75255 0.342159 1.27037 1.52902 0.521386 3.12729ZM8.26068 2.62016C9.0728 2.7332 9.87475 2.89969 10.6655 3.11914C9.91497 1.52495 8.43482 0.34165 6.65733 0C6.94552 0.200611 7.21486 0.482688 7.4557 0.83503C7.78156 1.31161 8.05702 1.91955 8.26068 2.62016ZM5.34063 2.44756C4.72505 2.45927 4.10387 2.50051 3.47658 2.5723C3.65479 2.01833 3.88289 1.5336 4.14867 1.1446C4.49236 0.641546 4.89664 0.299897 5.34063 0.204174V2.44756ZM5.84979 2.4445V0.204174C6.29379 0.299897 6.69807 0.641546 7.04175 1.1446C7.30397 1.52902 7.52954 2.00611 7.70723 2.55193C7.0942 2.48523 6.47505 2.44959 5.84979 2.4445Z" fill="#FA7C00"/>
</svg>
