<svg width="18" height="15" viewBox="0 0 18 15" fill="none" xmlns="http://www.w3.org/2000/svg">
<path d="M13.9715 14.9999C13.6437 14.9999 13.286 14.8383 12.9076 14.6667C12.6694 14.5588 12.3439 14.4117 12.2068 14.4117C12.0697 14.4117 11.7442 14.5587 11.506 14.6667C11.1276 14.8383 10.7699 14.9999 10.4421 14.9999C10.1143 14.9999 9.75656 14.8383 9.37819 14.6667C9.13999 14.5588 8.81446 14.4117 8.67736 14.4117C8.54026 14.4117 8.21473 14.5587 7.97653 14.6667C7.59816 14.8383 7.24047 14.9999 6.91264 14.9999C6.58482 14.9999 6.22713 14.8383 5.84876 14.6667C5.61056 14.5588 5.28503 14.4117 5.14793 14.4117C5.01083 14.4117 4.6853 14.5587 4.4471 14.6667C4.06873 14.8383 3.71104 14.9999 3.38321 14.9999C3.05539 14.9999 2.6977 14.8383 2.31932 14.6667C2.08113 14.5588 1.75559 14.4117 1.6185 14.4117C1.48369 14.4117 1.16812 14.5542 0.936806 14.6583C0.827278 14.7081 0.717745 14.7579 0.610509 14.8015C0.386096 14.8942 0.127213 14.7878 0.0337611 14.5626C-0.0596826 14.3374 0.0475478 14.0793 0.272743 13.9858C0.371549 13.9452 0.472646 13.9 0.573764 13.8533C0.943708 13.6863 1.29375 13.5286 1.61773 13.5286C1.94556 13.5286 2.30324 13.6902 2.68162 13.8617C2.9206 13.9705 3.24611 14.1176 3.38321 14.1176C3.52031 14.1176 3.84584 13.9705 4.08404 13.8625C4.46241 13.6909 4.8201 13.5293 5.14793 13.5293C5.47575 13.5293 5.83344 13.6909 6.21182 13.8625C6.45001 13.9705 6.77555 14.1176 6.91264 14.1176C7.04974 14.1176 7.37527 13.9705 7.61347 13.8625C7.99185 13.6909 8.34953 13.5293 8.67736 13.5293C9.00519 13.5293 9.36287 13.6909 9.74125 13.8625C9.97945 13.9705 10.305 14.1176 10.4421 14.1176C10.5792 14.1176 10.9047 13.9705 11.1429 13.8625C11.5213 13.6909 11.879 13.5293 12.2068 13.5293C12.5346 13.5293 12.8923 13.6909 13.2707 13.8625C13.5089 13.9705 13.8344 14.1176 13.9715 14.1176C14.1086 14.1176 14.4341 13.9705 14.6723 13.8625C15.0507 13.6909 15.4084 13.5293 15.7362 13.5293C16.061 13.5293 16.4102 13.6871 16.7802 13.8541C16.8813 13.9 16.9824 13.9452 17.0812 13.9866C17.3064 14.08 17.4129 14.3382 17.3202 14.5633C17.2268 14.7885 16.9702 14.895 16.7434 14.8023C16.6362 14.7579 16.5267 14.7081 16.4172 14.6591C16.1858 14.5549 15.8703 14.4125 15.7355 14.4125C15.5984 14.4125 15.2728 14.5595 15.0346 14.6675C14.657 14.8383 14.2993 14.9999 13.9715 14.9999Z" fill="#FA7C00"/>
<path d="M4.26556 0C2.55983 0 1.17731 1.38252 1.17731 3.08825C1.17731 4.79399 2.55983 6.17651 4.26556 6.17651C5.9713 6.17651 7.35381 4.79399 7.35381 3.08825C7.35381 1.38252 5.9713 0 4.26556 0ZM5.70245 2.8961L3.82897 5.09199C3.7248 5.21377 3.52795 5.11727 3.5586 4.96025L3.85119 3.48889H2.93283C2.81334 3.48889 2.74977 3.34642 2.82943 3.25681L4.76495 1.0815C4.87294 0.960482 5.07056 1.06542 5.03073 1.2232L4.6692 2.66546H5.59599C5.71548 2.66623 5.77981 2.80571 5.70245 2.8961Z" fill="#FA7C00"/>
<path d="M16.1392 8.686L14.2565 8.77562C13.9111 7.62594 13.345 6.66384 12.5102 5.85658C12.4175 5.76697 12.2865 5.72407 12.1578 5.73863L7.67701 6.23649C7.00834 6.31002 6.44922 6.79793 6.28607 7.45127L5.85485 9.17539L4.77641 9.22671C4.2908 9.24969 3.87031 9.56909 3.71636 10.0302L3.60071 10.3764L16.2049 10.0133C16.2715 9.64032 16.3129 9.25352 16.3213 8.86289C16.3244 8.76255 16.2395 8.68064 16.1392 8.686ZM12.0444 6.63874C12.6388 7.25531 13.0616 7.97835 13.345 8.81855L11.166 8.92272L10.6344 6.79565L12.0444 6.63874ZM8.01715 7.27905C8.04702 7.15957 8.14813 7.07072 8.27068 7.0577L9.74895 6.89302L10.2667 8.9648L7.56376 9.09425L8.01715 7.27905Z" fill="#FA7C00"/>
<path d="M15.976 10.9023C15.6934 11.7403 15.2423 12.4289 14.6104 12.7682C14.5774 12.7858 14.5399 12.7942 14.5024 12.7942H3.08524C2.94278 12.7942 2.84167 12.654 2.88687 12.5185L3.30431 11.2669L15.976 10.9023Z" fill="#FA7C00"/>
<path d="M2.35535 11.3235H1.20644C1.10917 11.3235 1.03027 11.2446 1.03027 11.1473V10.6181C1.03027 10.5208 1.10916 10.4419 1.20644 10.4419H2.6487L2.35535 11.3235Z" fill="#FA7C00"/>
</svg>
