<svg width="15" height="14" viewBox="0 0 15 14" fill="none" xmlns="http://www.w3.org/2000/svg">
<path d="M12.4522 8.30649C12.5357 8.23295 12.668 8.14089 12.8199 8.03499C13.8986 7.28278 16.1435 5.7178 14.2932 2.20438C13.3707 0.452859 12.0322 0.0405031 11.0717 0.00312627C9.55374 -0.0584763 7.97474 0.801017 7.44852 1.63594C7.44368 1.64217 7.43312 1.65376 7.41859 1.67003C6.66396 2.51481 6.75134 3.11336 6.95743 3.46671C7.20505 3.89118 7.41236 4.10506 7.59128 4.12063C7.68957 4.1305 7.74062 4.07512 7.74996 4.06422L7.80516 3.995L7.73629 3.93963C7.73594 3.93929 7.7247 3.92977 7.70843 3.90745C7.74494 3.94309 7.78578 3.97891 7.83181 4.01456C7.86036 4.36081 7.45821 4.9026 7.20229 5.12859C6.96816 5.33572 6.95674 5.4951 7.15816 5.73753C7.19 5.77594 7.22322 5.81141 7.25558 5.84585C7.36546 5.96265 7.44472 6.0471 7.43347 6.19401L7.42724 6.26461C7.4108 6.43263 7.3909 6.63734 7.62295 6.73701C7.57553 6.94812 7.68697 7.10559 7.7953 7.25855C7.828 7.3051 7.86226 7.35303 7.89306 7.40443C7.91175 7.43592 7.89895 7.49597 7.88545 7.55947C7.87126 7.62592 7.85517 7.70102 7.86901 7.77543C7.87593 7.8128 7.87559 7.8597 7.87541 7.90953C7.8749 7.99761 7.87438 8.08863 7.91193 8.16633C8.04309 8.43887 8.40371 8.49718 8.90085 8.32777C8.92802 8.31843 8.96055 8.30666 8.99689 8.29351C9.1881 8.22378 9.63593 8.06112 9.76156 8.17169C9.79461 8.20111 9.80551 8.2525 9.81797 8.31185C9.8216 8.32933 9.82524 8.34646 9.82887 8.36134C9.83112 8.37121 10.0355 9.34473 9.30542 10.0743C8.52051 10.8585 8.25385 13.4823 8.24278 13.5938L8.22028 13.8222L8.38813 13.6654C8.4262 13.6299 12.2016 10.117 13.3933 10.5065L13.4532 10.3442C12.7858 10.0699 12.3547 9.72335 12.2073 9.34196C12.0879 9.03326 12.1909 8.80935 12.1942 8.80225L12.4522 8.30649Z" fill="#FA7C00"/>
<path d="M5.46098 10.0009C5.45336 9.94203 5.44852 9.89047 5.4705 9.85101C5.55805 9.6932 6.06541 9.69787 6.28327 9.70047C6.32411 9.70099 6.36131 9.70116 6.39142 9.70099C6.94636 9.69562 7.28466 9.51116 7.31944 9.19519C7.3293 9.10538 7.29694 9.01505 7.26562 8.92767C7.24762 8.87766 7.23067 8.83024 7.22444 8.78993C7.22167 8.77245 7.21976 8.75947 7.21821 8.74978C7.22997 8.72884 7.2388 8.7015 7.24693 8.66205L7.26026 8.59785C7.30888 8.36649 7.30473 8.30991 7.15851 8.13825C7.35093 7.95933 7.25991 7.76397 7.18516 7.60373L7.15366 7.53521C7.08981 7.39003 7.14242 7.2708 7.20904 7.11956C7.22928 7.07353 7.24987 7.02647 7.26822 6.97732C7.38329 6.66689 7.31615 6.51305 7.01229 6.38985C6.85136 6.32461 6.63195 6.19881 6.43589 6.04636C6.43502 6.03788 6.43399 6.02854 6.43278 6.01695C6.25004 4.28464 5.32826 3.35281 3.84495 3.39832C2.60823 3.43483 1.55389 3.92817 0.876608 4.78732C0.0212673 5.87263 -0.214068 7.48381 0.196731 9.44679C0.754614 12.112 3.05398 12.6053 4.90154 13.0017C5.85828 13.2071 6.68472 13.3843 7.0796 13.8168L7.19364 13.9417L7.22807 13.7763C7.60686 11.9621 6.96315 10.6126 5.46098 10.0009Z" fill="#FA7C00"/>
</svg>
