<svg width="15" height="15" viewBox="0 0 15 15" fill="none" xmlns="http://www.w3.org/2000/svg">
<path d="M7.50007 14.5C3.64238 14.5 0.5 11.3577 0.5 7.50001C0.5 5.63329 1.23115 3.87559 2.55336 2.55327C2.67783 2.4288 2.86445 2.4288 2.98892 2.55327C3.11339 2.67774 3.11339 2.86436 2.98892 2.98883C1.79116 4.20215 1.12226 5.78887 1.12226 7.50001C1.12226 11.0155 3.98449 13.8777 7.50007 13.8777C11.0156 13.8777 13.8779 11.0155 13.8779 7.50001C13.8779 4.09336 11.1867 1.29333 7.8111 1.12227V3.14448C7.8111 3.31559 7.67111 3.45557 7.50001 3.45557C7.32891 3.45557 7.18892 3.31558 7.18892 3.14448L7.18884 0.811086C7.18884 0.639981 7.32883 0.5 7.49993 0.5C11.3578 0.5 14.5 3.64214 14.5 7.49999C14.5001 11.3578 11.3578 14.5 7.49993 14.5L7.50007 14.5ZM8.3868 8.38656C8.62014 8.15322 8.74461 7.84214 8.74461 7.49993C8.74461 7.15772 8.62014 6.86215 8.3868 6.61329C8.01346 6.23996 4.6378 4.06212 4.24896 3.81326C4.12449 3.73551 3.96897 3.75102 3.86002 3.85989C3.75115 3.96876 3.73555 4.12436 3.81339 4.24883C4.06225 4.63776 6.24006 7.99778 6.61346 8.38661C6.8468 8.61996 7.15789 8.74443 7.5001 8.74443C7.84239 8.74427 8.13788 8.61988 8.38683 8.38653L8.3868 8.38656ZM7.93563 7.06429C8.0601 7.18876 8.12234 7.34427 8.12234 7.49985C8.12234 7.65542 8.0601 7.82653 7.93563 7.9354C7.70229 8.16874 7.29785 8.16874 7.04899 7.9354C6.86228 7.7487 5.96012 6.39539 5.13562 5.13537C6.41121 5.97538 7.749 6.87761 7.93569 7.06423L7.93563 7.06429Z" fill="#FA7C00" stroke="#FA7C00"/>
</svg>
