<svg width="18" height="17" viewBox="0 0 18 17" fill="none" xmlns="http://www.w3.org/2000/svg">
<path d="M1.05108 16.3937C1.47557 16.6363 2.00113 17.0001 2.99161 17.0001C3.98209 17.0001 4.50765 16.6767 4.93214 16.3937C5.25556 16.1916 5.4577 16.0501 5.98325 16.0501C6.46839 16.0501 6.73116 16.1916 7.03437 16.3937C7.45886 16.6363 7.98442 17.0001 8.9749 17.0001C9.96537 17.0001 10.4909 16.6767 10.9154 16.3937C11.2388 16.1916 11.441 16.0501 11.9665 16.0501C12.4517 16.0501 12.7145 16.1916 13.0177 16.3937C13.4421 16.6363 13.9677 17.0001 14.9582 17.0001C15.9487 17.0001 16.4742 16.6767 16.8987 16.3937C17.1413 16.232 17.3232 16.1107 17.6264 16.0703V14.4936C17.2423 14.5542 16.9998 14.6957 16.737 14.8574C16.2114 15.1 15.7263 15.4234 14.8369 15.4234C13.9475 15.4234 13.5028 15.1404 13.1187 14.8979C12.7751 14.6957 12.4921 14.5138 11.8857 14.5138C11.2793 14.5138 10.9963 14.6957 10.6526 14.8979C10.2686 15.1404 9.80366 15.4234 8.93447 15.4234C8.06528 15.4234 7.60036 15.1404 7.2163 14.8979C6.87266 14.6957 6.58967 14.5138 5.98325 14.5138C5.37684 14.5138 5.07363 14.6553 4.70978 14.8574C4.32572 15.1 3.8608 15.383 2.99161 15.383C2.12242 15.383 1.6575 15.1 1.27344 14.8574C0.929802 14.6553 0.646808 14.4734 0.0606079 14.4734V16.0501C0.505312 16.0501 0.747877 16.1916 1.05108 16.3937Z" fill="#FA7C00"/>
<path d="M5.09384 4.04276H5.27576V4.08319V6.26628L6.16517 5.98329V4.70982C6.16517 4.50768 6.34709 4.36618 6.5088 4.36618H11.259C11.4612 4.36618 11.6027 4.54811 11.6027 4.70982V5.98329L12.4921 6.26628V4.08319V4.04276H12.674C12.957 4.04276 13.1591 3.84062 13.1591 3.55763V3.41613C13.1591 3.13314 12.957 2.931 12.674 2.931H9.17702V2.54694H11.0771C11.2186 2.54694 11.3601 2.40544 11.3601 2.26395C11.3601 2.22352 11.3601 2.20331 11.3601 2.20331C11.542 2.14266 11.6431 1.96074 11.6431 1.73839V1.13197C11.6431 0.747911 11.3197 0.464918 10.9761 0.464918H10.875C10.4909 0.464918 10.2079 0.768125 10.2079 1.13197V1.7586C10.2079 1.85967 10.2484 1.94053 10.2686 2.00117H9.21745V0.282993C9.21745 0.141497 9.07596 0 8.93446 0C8.79296 0 8.65147 0.141497 8.65147 0.282993V1.98095H7.60035C7.64077 1.92031 7.66099 1.83946 7.66099 1.73839V1.13197C7.66099 0.747911 7.33757 0.464918 6.99393 0.464918H6.89286C6.5088 0.464918 6.22581 0.788339 6.22581 1.13197V1.7586C6.22581 1.96074 6.32688 2.10224 6.5088 2.22352C6.5088 2.26395 6.5088 2.28416 6.5088 2.28416C6.5088 2.42566 6.6503 2.56715 6.79179 2.56715H8.69189V2.95122H5.21512C4.93212 2.95122 4.72999 3.15335 4.72999 3.43635V3.59806C4.6087 3.84062 4.83106 4.04276 5.09384 4.04276Z" fill="#FA7C00"/>
<path d="M1.65751 14.0487C2.00115 14.2508 2.28414 14.4327 2.89055 14.4327C3.49697 14.4327 3.77996 14.2508 4.12359 14.0487C4.50766 13.8061 4.97257 13.5231 5.84177 13.5231C6.73118 13.5231 7.17588 13.8061 7.55994 14.0487C7.90358 14.2508 8.18657 14.4327 8.79298 14.4327C9.3994 14.4327 9.68239 14.2508 10.026 14.0487C10.4101 13.8061 10.875 13.5231 11.7442 13.5231C12.6134 13.5231 13.0783 13.8061 13.4624 14.0487C13.806 14.2508 14.089 14.4327 14.6954 14.4327C15.3018 14.4327 15.5848 14.2508 15.9285 14.0487C16.3125 13.8061 16.7572 13.5433 17.6062 13.5231V12.1081C16.7977 12.1486 16.2721 12.4518 15.8678 12.6943C15.5444 12.8965 15.3423 13.038 14.8167 13.038C14.2911 13.038 14.0688 12.8965 13.7656 12.6943C13.4826 12.5124 13.1996 12.3507 12.7549 12.2092C12.957 10.0261 13.8869 8.61114 14.3114 7.98451C14.4529 7.78237 14.3518 7.51959 14.1294 7.45895L9.09619 5.84184C8.99512 5.80142 8.85363 5.80142 8.71213 5.84184L3.63846 7.45895C3.43633 7.51959 3.31504 7.80258 3.45654 7.98451C3.88103 8.61114 4.83108 10.0261 5.013 12.2092C4.54808 12.3103 4.24488 12.5326 4.00231 12.6943C3.67889 12.8965 3.47675 13.038 2.95119 13.038C2.42564 13.038 2.20328 12.8965 1.90008 12.6943C1.4958 12.4518 0.970241 12.1283 0.0404053 12.1081V13.5231C0.828744 13.5433 1.27345 13.8061 1.65751 14.0487Z" fill="#FA7C00"/>
</svg>
