<svg width="18" height="11" viewBox="0 0 18 11" fill="none" xmlns="http://www.w3.org/2000/svg">
<path d="M0.830541 10.2441H0.276847C0.203423 10.2441 0.133005 10.2733 0.0810866 10.3252C0.0291677 10.3771 0 10.4476 0 10.521C0 10.5944 0.0291677 10.6648 0.0810866 10.7167C0.133005 10.7687 0.203423 10.7978 0.276847 10.7978H0.830541C0.903965 10.7978 0.974382 10.7687 1.0263 10.7167C1.07822 10.6648 1.10739 10.5944 1.10739 10.521C1.10739 10.4476 1.07822 10.3771 1.0263 10.3252C0.974382 10.2733 0.903965 10.2441 0.830541 10.2441Z" fill="#FA7C00"/>
<path d="M17.4414 10.2441H16.8877C16.8143 10.2441 16.7438 10.2733 16.6919 10.3252C16.64 10.3771 16.6108 10.4476 16.6108 10.521C16.6108 10.5944 16.64 10.6648 16.6919 10.7167C16.7438 10.7687 16.8143 10.7978 16.8877 10.7978H17.4414C17.5148 10.7978 17.5852 10.7687 17.6371 10.7167C17.6891 10.6648 17.7182 10.5944 17.7182 10.521C17.7182 10.4476 17.6891 10.3771 17.6371 10.3252C17.5852 10.2733 17.5148 10.2441 17.4414 10.2441Z" fill="#FA7C00"/>
<path d="M11.7092 2.41063C12.1674 2.86888 12.8705 2.90754 13.0945 2.90754C13.1335 2.91213 13.173 2.90896 13.2108 2.89823C13.2485 2.8875 13.2838 2.86941 13.3146 2.845C13.3453 2.8206 13.371 2.79036 13.39 2.75602C13.4091 2.72167 13.4211 2.68391 13.4255 2.64489C13.4276 2.60772 13.4695 1.72905 12.9301 1.18969C12.3907 0.650187 11.5123 0.692633 11.4749 0.694255C11.4069 0.698032 11.3426 0.726761 11.2944 0.774944C11.2462 0.823128 11.2175 0.887384 11.2137 0.955422C11.2117 0.992597 11.1698 1.87126 11.7092 2.41063ZM12.5386 1.58117C12.7235 1.79279 12.8355 2.05829 12.8579 2.33844C12.5778 2.31594 12.3123 2.20401 12.1006 2.01915C11.9157 1.80752 11.8038 1.54202 11.7813 1.26187C12.0615 1.2843 12.3269 1.39624 12.5386 1.58117Z" fill="#FA7C00"/>
<path d="M7.1287 1.57157C7.12985 1.63173 7.11809 1.64876 7.06239 1.7196C6.93892 1.85693 6.87276 2.03636 6.87754 2.22097C6.87896 2.29342 6.90873 2.36242 6.96045 2.41317C7.01217 2.46391 7.08172 2.49236 7.15418 2.49241C7.22794 2.49051 7.29808 2.46 7.34976 2.40733C7.40143 2.35465 7.4306 2.28395 7.4311 2.21016C7.42995 2.15001 7.44171 2.13297 7.4974 2.06214C7.61985 1.92416 7.68585 1.74513 7.68226 1.56069C7.67866 1.37624 7.60574 1.19992 7.478 1.06682C7.41933 0.998009 7.4069 0.981248 7.40568 0.921093C7.40453 0.861074 7.41629 0.844041 7.47192 0.773342C7.59543 0.636129 7.66161 0.456778 7.65684 0.272228C7.65624 0.235811 7.64845 0.199872 7.63393 0.166469C7.61941 0.133067 7.59844 0.102859 7.57223 0.0775746C7.54601 0.0522905 7.51507 0.0324281 7.48116 0.0191255C7.44725 0.00582287 7.41106 -0.000658626 7.37464 5.28216e-05C7.33823 0.00076427 7.30231 0.00865462 7.26895 0.0232714C7.23559 0.0378882 7.20544 0.0589443 7.18024 0.0852331C7.15503 0.111522 7.13526 0.142526 7.12205 0.17647C7.10885 0.210414 7.10247 0.24663 7.10329 0.283042C7.10444 0.343061 7.09268 0.360095 7.03705 0.430793C6.91457 0.568701 6.84855 0.747691 6.85213 0.9321C6.85571 1.11651 6.92864 1.2928 7.05638 1.42585C7.11505 1.49466 7.12748 1.51142 7.1287 1.57157Z" fill="#FA7C00"/>
<path d="M8.51287 1.57157C8.50998 1.62742 8.48637 1.6802 8.44667 1.71959C8.32319 1.85693 8.25704 2.03636 8.26181 2.22097C8.26324 2.29342 8.29301 2.36242 8.34473 2.41316C8.39645 2.46391 8.466 2.49236 8.53846 2.49241C8.60191 2.49087 8.66303 2.46821 8.71217 2.42803C8.7613 2.38785 8.79564 2.33244 8.80975 2.27056C8.81798 2.23194 8.81286 2.19064 8.82318 2.15257C8.83646 2.11883 8.85635 2.08809 8.88168 2.06214C9.00413 1.92416 9.07013 1.74512 9.06653 1.56068C9.06293 1.37623 8.99001 1.1999 8.86227 1.0668C8.81884 1.02507 8.79296 0.968348 8.7899 0.908195C8.79594 0.856987 8.81933 0.809391 8.8562 0.77334C8.9797 0.636128 9.04589 0.456777 9.04112 0.272228C9.04052 0.235811 9.03273 0.199872 9.01821 0.166469C9.00369 0.133067 8.98272 0.102859 8.95651 0.0775746C8.93029 0.0522905 8.89934 0.0324281 8.86544 0.0191255C8.83153 0.00582287 8.79533 -0.000658626 8.75892 5.28216e-05C8.7225 0.00076427 8.68659 0.00865462 8.65323 0.0232714C8.61987 0.0378882 8.58972 0.0589443 8.56451 0.0852331C8.53931 0.111522 8.51953 0.142526 8.50633 0.17647C8.49312 0.210414 8.48675 0.24663 8.48757 0.283042C8.48871 0.343061 8.47695 0.360095 8.42133 0.430793C8.29885 0.568697 8.23283 0.747682 8.23641 0.932086C8.23998 1.11649 8.31291 1.29278 8.44064 1.42583C8.48007 1.46516 8.50545 1.51637 8.51287 1.57157Z" fill="#FA7C00"/>
<path d="M1.70901 6.04748L1.34439 1.93867H4.74617L4.56527 3.97702C4.7504 3.95422 4.93699 3.94543 5.12344 3.95073L5.39633 0.876166C5.40318 0.80304 5.39527 0.729283 5.37308 0.65927C5.35089 0.589257 5.31486 0.524414 5.26714 0.468587C5.21941 0.412761 5.16096 0.367088 5.09525 0.334279C5.02954 0.301469 4.95791 0.282191 4.88461 0.277588H1.20599C1.13247 0.28185 1.06057 0.30094 0.994626 0.333709C0.928678 0.366479 0.87004 0.412249 0.822241 0.468269C0.774442 0.524288 0.738468 0.589397 0.716485 0.65968C0.694502 0.729963 0.686963 0.803966 0.694323 0.877238L1.22947 6.90736C1.29939 6.86396 1.37539 6.83125 1.45498 6.81031C1.50983 6.54705 1.59508 6.29106 1.70901 6.04748ZM4.84446 0.83128L4.79532 1.38497H1.29526L1.24612 0.83128H4.84446Z" fill="#FA7C00"/>
<path d="M14.2636 3.05157C14.243 2.82116 14.2615 2.43733 14.437 2.28803C14.4647 2.26447 14.4875 2.23569 14.504 2.20333C14.5206 2.17097 14.5307 2.13566 14.5336 2.09942C14.5365 2.06318 14.5323 2.02672 14.5211 1.99212C14.5099 1.95752 14.4921 1.92546 14.4685 1.89776C14.4449 1.87007 14.4162 1.84729 14.3838 1.83072C14.3514 1.81415 14.3161 1.80411 14.2799 1.80119C14.2437 1.79827 14.2072 1.80251 14.1726 1.81367C14.138 1.82484 14.1059 1.84271 14.0782 1.86627C13.6964 2.19108 13.6878 2.77868 13.7098 3.06766C13.3362 3.12488 12.9817 3.27107 12.6763 3.49393C12.3709 3.71678 12.1236 4.00977 11.9551 4.3482C12.115 4.44814 12.2653 4.56265 12.4041 4.69027C12.5851 4.2625 12.9246 3.92135 13.3515 3.73823C13.7784 3.55512 14.2595 3.54423 14.6942 3.70786C15.129 3.87148 15.4835 4.19693 15.6837 4.61608C15.8839 5.03522 15.9142 5.51555 15.7682 5.95651C15.9027 6.14271 16.0154 6.34371 16.1041 6.55557C16.2996 6.21309 16.4058 5.82687 16.4127 5.43255C16.4196 5.03824 16.3271 4.64853 16.1437 4.29938C15.9604 3.95024 15.692 3.6529 15.3634 3.43482C15.0348 3.21674 14.6566 3.08494 14.2636 3.05157Z" fill="#FA7C00"/>
<path d="M8.43672 4.35276C8.26174 4.26193 8.06574 4.21928 7.86884 4.22919C7.67193 4.23909 7.48121 4.3012 7.31622 4.40913C7.25671 4.45085 7.21609 4.51439 7.20321 4.58592C7.19034 4.65745 7.20625 4.73116 7.24748 4.79101C7.28967 4.85021 7.35302 4.89089 7.4244 4.90463C7.49577 4.91838 7.5697 4.90412 7.63085 4.86482C7.7116 4.81425 7.80405 4.78541 7.89923 4.7811C7.9944 4.77679 8.08908 4.79716 8.17407 4.84022C8.20608 4.85758 8.24121 4.86845 8.27743 4.87221C8.31365 4.87597 8.35026 4.87254 8.38516 4.86213C8.42006 4.85172 8.45256 4.83453 8.4808 4.81154C8.50904 4.78855 8.53247 4.76022 8.54975 4.72816C8.56702 4.6961 8.5778 4.66094 8.58147 4.62471C8.58514 4.58848 8.58162 4.55188 8.57112 4.51701C8.56062 4.48214 8.54335 4.44968 8.52028 4.4215C8.49722 4.39332 8.46883 4.36996 8.43672 4.35276Z" fill="#FA7C00"/>
<path d="M8.15987 5.87541C7.98487 5.78461 7.78888 5.74199 7.59198 5.75189C7.39509 5.7618 7.20437 5.82388 7.03937 5.93178C6.97985 5.97349 6.93923 6.03703 6.92636 6.10856C6.91348 6.18009 6.92939 6.25381 6.97063 6.31365C7.01254 6.3732 7.07591 6.41416 7.14742 6.42793C7.21892 6.4417 7.29297 6.42719 7.354 6.38746C7.43473 6.33686 7.52718 6.308 7.62237 6.30369C7.71755 6.29938 7.81224 6.31976 7.89721 6.36286C7.92923 6.38022 7.96435 6.39109 8.00057 6.39485C8.0368 6.39861 8.07341 6.39519 8.1083 6.38478C8.1432 6.37437 8.1757 6.35717 8.20394 6.33418C8.23219 6.31119 8.25562 6.28286 8.27289 6.2508C8.29016 6.21874 8.30094 6.18359 8.30461 6.14735C8.30828 6.11112 8.30476 6.07452 8.29426 6.03965C8.28377 6.00478 8.26649 5.97232 8.24343 5.94414C8.22037 5.91596 8.19197 5.8926 8.15987 5.87541Z" fill="#FA7C00"/>
<path d="M4.70745 5.74525H4.70157C4.49332 5.74228 4.28755 5.79064 4.10242 5.88605C3.91729 5.98146 3.7585 6.12099 3.64008 6.29232C3.62102 6.32327 3.60825 6.35768 3.60249 6.39357C3.59674 6.42946 3.5981 6.46613 3.60652 6.50149C3.61494 6.53685 3.63024 6.57021 3.65155 6.59966C3.67286 6.62911 3.69976 6.65407 3.73071 6.67312C3.79346 6.71076 3.86845 6.72235 3.93963 6.70539C4.01082 6.68844 4.07254 6.6443 4.11158 6.58241C4.1803 6.4916 4.2697 6.41851 4.37235 6.36921C4.475 6.3199 4.58794 6.29581 4.70177 6.29894H4.70637C4.77979 6.29909 4.85027 6.27006 4.90229 6.21824C4.95431 6.16642 4.98361 6.09606 4.98376 6.02264C4.9839 5.94921 4.95487 5.87874 4.90305 5.82672C4.85124 5.7747 4.78088 5.74539 4.70745 5.74525Z" fill="#FA7C00"/>
<path d="M13.3493 6.29605C13.2802 6.31641 13.2219 6.36317 13.187 6.42619C13.1522 6.48921 13.1435 6.56343 13.1629 6.63278C13.1825 6.70288 13.2286 6.76258 13.2914 6.79919C13.3543 6.8358 13.429 6.84642 13.4996 6.82879C13.5487 6.81761 13.6 6.82042 13.6476 6.8369C13.6952 6.85339 13.7373 6.88289 13.7689 6.92206C13.8168 6.97725 13.8843 7.01163 13.9572 7.01792C14.03 7.0242 14.1024 7.00189 14.159 6.95572C14.1868 6.93233 14.2098 6.90368 14.2265 6.87142C14.2433 6.83915 14.2535 6.80391 14.2566 6.76769C14.2597 6.73147 14.2557 6.695 14.2447 6.66034C14.2337 6.62569 14.216 6.59354 14.1926 6.56573C14.0924 6.44496 13.9598 6.35539 13.8104 6.3076C13.6609 6.25981 13.5009 6.2558 13.3493 6.29605Z" fill="#FA7C00"/>
<path d="M10.3212 5.71775C10.2857 5.72565 10.2521 5.74048 10.2223 5.76139C10.1925 5.7823 10.1672 5.80887 10.1477 5.83959C10.1282 5.87031 10.1149 5.90457 10.1087 5.94042C10.1024 5.97626 10.1033 6.01299 10.1113 6.04849C10.1192 6.08399 10.1341 6.11758 10.1551 6.14733C10.176 6.17707 10.2026 6.2024 10.2334 6.22185C10.2641 6.2413 10.2984 6.2545 10.3343 6.26069C10.3701 6.26688 10.4068 6.26594 10.4423 6.25792C10.4939 6.2506 10.5465 6.2573 10.5946 6.27733C10.6427 6.29735 10.6845 6.32997 10.7157 6.37174C10.761 6.42906 10.8268 6.46648 10.8993 6.4761C10.9717 6.48571 11.045 6.46676 11.1038 6.42325C11.1621 6.37861 11.2002 6.31265 11.2099 6.23987C11.2195 6.16708 11.1999 6.09344 11.1553 6.03515C11.0599 5.9095 10.9311 5.81313 10.7837 5.75702C10.6362 5.70091 10.476 5.6873 10.3212 5.71775Z" fill="#FA7C00"/>
<path d="M16.0571 7.33726H15.7487C15.6523 6.74543 15.3474 6.20759 14.8891 5.82092C14.4308 5.43425 13.8493 5.22426 13.2497 5.22888C12.9301 5.22824 12.6132 5.28772 12.3156 5.4042C12.0952 5.12276 11.8177 4.89123 11.5012 4.72489C11.1848 4.55854 10.8368 4.46116 10.48 4.43916C10.2149 4.00581 9.84112 3.64931 9.39572 3.40504C8.95033 3.16077 8.44879 3.03722 7.9409 3.04664C7.433 3.05607 6.9364 3.19815 6.50038 3.45879C6.06436 3.71942 5.70407 4.08955 5.45528 4.53243C5.3102 4.51174 5.16384 4.5013 5.0173 4.50121C4.24007 4.49353 3.4892 4.78271 2.91791 5.30974C2.34662 5.83678 1.99796 6.56194 1.94308 7.33726H1.66106C1.58764 7.33727 1.51722 7.36644 1.46531 7.41835C1.41339 7.47027 1.38422 7.54069 1.38422 7.61411V8.1678C1.38446 8.388 1.47204 8.59911 1.62774 8.75482C1.78345 8.91052 1.99456 8.9981 2.21476 8.99834H2.28009L3.03058 10.2442H1.93791C1.86449 10.2442 1.79407 10.2733 1.74215 10.3252C1.69023 10.3772 1.66106 10.4476 1.66106 10.521C1.66106 10.5944 1.69023 10.6648 1.74215 10.7168C1.79407 10.7687 1.86449 10.7978 1.93791 10.7978H15.7803C15.8537 10.7978 15.9241 10.7687 15.976 10.7168C16.0279 10.6648 16.0571 10.5944 16.0571 10.521C16.0571 10.4476 16.0279 10.3772 15.976 10.3252C15.9241 10.2733 15.8537 10.2442 15.7803 10.2442H14.6877L15.4381 8.99834H15.5034C15.7236 8.9981 15.9347 8.91052 16.0904 8.75482C16.2461 8.59911 16.3337 8.388 16.3339 8.1678V7.61411C16.3339 7.54069 16.3048 7.47027 16.2529 7.41835C16.2009 7.36644 16.1305 7.33727 16.0571 7.33726ZM5.01729 5.0549C5.19763 5.05528 5.37744 5.07426 5.55388 5.11154C5.61561 5.12453 5.67992 5.11604 5.73616 5.08747C5.7924 5.0589 5.83719 5.01197 5.86311 4.95446C6.04852 4.55946 6.34 4.22373 6.70506 3.9847C7.07011 3.74567 7.49438 3.61274 7.93057 3.60072C8.36675 3.58871 8.7977 3.69809 9.17536 3.91666C9.55301 4.13524 9.86254 4.45442 10.0694 4.83861C10.0927 4.8833 10.1278 4.92076 10.1709 4.94695C10.214 4.97313 10.2634 4.98704 10.3138 4.98717C10.6469 4.98596 10.9749 5.06881 11.2674 5.22805C11.56 5.38729 11.8076 5.61777 11.9874 5.89815C12.0242 5.95586 12.0812 5.99788 12.1472 6.01608C12.2132 6.03428 12.2836 6.02737 12.3448 5.99669C12.6255 5.85531 12.9354 5.78196 13.2497 5.78257C13.7023 5.77839 14.1424 5.93093 14.4954 6.21431C14.8484 6.49768 15.0924 6.89444 15.1862 7.33726H2.50043C2.55454 6.70945 2.84403 6.12531 3.31082 5.70201C3.77761 5.2787 4.38719 5.04755 5.01729 5.0549ZM14.1219 10.1102C14.0972 10.151 14.0624 10.1847 14.0209 10.2082C13.9794 10.2316 13.9325 10.244 13.8848 10.2442H3.83332C3.78562 10.244 3.73875 10.2316 3.69723 10.2081C3.65571 10.1846 3.62092 10.1509 3.59622 10.1101L2.92656 8.99834H14.7916L14.1219 10.1102ZM15.7803 8.1678C15.7802 8.2412 15.751 8.31157 15.6991 8.36347C15.6472 8.41537 15.5768 8.44457 15.5034 8.44465H2.21476C2.14136 8.44457 2.07099 8.41537 2.01909 8.36347C1.96719 8.31157 1.93799 8.2412 1.93791 8.1678V7.89096H15.7803V8.1678Z" fill="#FA7C00"/>
</svg>
