<svg width="19" height="19" viewBox="0 0 19 19" fill="none" xmlns="http://www.w3.org/2000/svg">
<path d="M14.0674 12.6748C14.1159 12.6747 14.1642 12.6846 14.209 12.7031C14.2313 12.7124 14.2524 12.724 14.2725 12.7373L14.3291 12.7832L17.9395 16.3936C18.0087 16.464 18.0474 16.5594 18.0469 16.6582C18.0463 16.7568 18.0064 16.8513 17.9365 16.9209L17.9355 16.9219L16.918 17.9434H16.917C16.883 17.9776 16.8424 18.0049 16.7979 18.0234C16.7533 18.042 16.7055 18.0518 16.6572 18.0518C16.609 18.0517 16.5611 18.042 16.5166 18.0234C16.4721 18.0049 16.4314 17.9776 16.3975 17.9434L12.7822 14.3281C12.7483 14.294 12.7215 14.2535 12.7031 14.209C12.6846 14.1642 12.6747 14.1159 12.6748 14.0674V12.6748H14.0674ZM7.32129 0.50293C9.11195 0.448262 10.8564 1.07863 12.1982 2.26562C13.5402 3.45271 14.3779 5.10751 14.542 6.8916C14.7061 8.67569 14.1839 10.4552 13.0811 11.8672L12.5479 12.5479L11.8672 13.0811C10.4552 14.1839 8.67569 14.7061 6.8916 14.542C5.10751 14.3779 3.45271 13.5402 2.26562 12.1982C1.07863 10.8564 0.448262 9.11194 0.50293 7.32129C0.557693 5.53049 1.29367 3.82743 2.56055 2.56055C3.82743 1.29367 5.53049 0.557693 7.32129 0.50293ZM9.49707 2.78613C8.55788 2.39711 7.52439 2.29583 6.52734 2.49414C5.53031 2.69246 4.61434 3.18158 3.89551 3.90039C3.17667 4.61923 2.68661 5.53516 2.48828 6.53223C2.28998 7.52926 2.39223 8.56278 2.78125 9.50195C3.17028 10.4412 3.82954 11.2438 4.6748 11.8086C5.52002 12.3733 6.51378 12.6748 7.53027 12.6748V12.6738C8.20521 12.6742 8.87343 12.5423 9.49707 12.2842C10.1209 12.026 10.6876 11.6473 11.165 11.1699C11.6424 10.6925 12.0211 10.1258 12.2793 9.50195C12.5374 8.87816 12.6704 8.20928 12.6699 7.53418C12.6698 6.51795 12.3683 5.52469 11.8037 4.67969C11.2389 3.83444 10.4363 3.17517 9.49707 2.78613Z" fill="white" stroke="white"/>
</svg>
