<svg width="96" height="99" viewBox="0 0 96 99" fill="none" xmlns="http://www.w3.org/2000/svg">
<path d="M81.9998 0.00018374H50.2602C46.5469 0.00018374 42.9859 1.47535 40.3607 4.10068C37.7348 6.72654 36.2602 10.2874 36.2602 14.0002V26.3804C35.3727 26.5345 34.5457 26.932 33.8711 27.529C33.1965 28.126 32.7013 28.8983 32.4404 29.7604C32.4047 29.8782 32.3778 29.9987 32.3603 30.1201L31.7203 34.7499V34.7505C31.5312 36.1057 31.1368 37.4238 30.5501 38.6603L24.2801 51.8505C23.4427 53.8115 21.7567 55.2842 19.6999 55.8503C19.6358 54.6185 19.0967 53.4602 18.1958 52.617C17.2954 51.7745 16.1035 51.3134 14.8701 51.3305H4.87023C3.60178 51.3036 2.37471 51.7833 1.46074 52.6635C0.546768 53.5438 0.0211721 54.7517 0 56.0202V94.3099C0.0211932 95.5716 0.541183 96.7734 1.44631 97.6527C2.35192 98.5314 3.56868 99.0163 4.83041 99.0003H14.8302C16.0935 99.0189 17.3129 98.5356 18.22 97.6564C19.1277 96.7766 19.6493 95.5733 19.6699 94.31V93.7202L21.7597 94.9701H21.7602C24.3447 96.5254 27.3035 97.3484 30.3201 97.3498H47.0195C49.4283 97.3602 51.7776 96.6055 53.7294 95.1949C55.6806 93.7843 57.1341 91.7902 57.88 89.5003L65.1698 67.3503C66.23 64.1125 65.7854 60.5703 63.9577 57.6952C62.13 54.8202 59.1113 52.9139 55.7297 52.4999C50.9299 51.9101 46.5496 51.5498 43.5796 51.4997V51.5002C43.4772 49.8177 43.6427 48.13 44.0696 46.5003C45.9914 47.4503 48.1061 47.9461 50.2496 47.9502H63.4195C65.9094 53.9503 70.7698 57.4202 74.5695 59.3602H74.5701C75.6178 59.8884 76.8335 59.9753 77.9459 59.6011C79.0583 59.2268 79.9742 58.4231 80.4902 57.3686C81.0055 56.3146 81.0773 55.0979 80.6897 53.9902C80.0466 52.0585 79.8787 50.0003 80.1997 47.99H81.9999C85.7129 47.99 89.2737 46.5153 91.8995 43.8895C94.5248 41.2642 96 37.7033 96 33.99V14.0301C96.0077 10.312 94.5362 6.74343 91.9098 4.11135C89.2834 1.47927 85.7179 0 81.9998 0L81.9998 0.00018374ZM14.7296 94.0001H4.99901V56.3403H14.729L14.7296 94.0001ZM55.1192 57.4995C57.0173 57.7331 58.7112 58.8042 59.7356 60.4194C60.7601 62.0342 61.0072 64.0231 60.4092 65.8396L53.1291 87.9591C52.7094 89.2374 51.8964 90.3502 50.8062 91.139C49.716 91.9273 48.4047 92.3511 47.0592 92.349H30.3598C28.2456 92.3516 26.1714 91.7779 24.3596 90.6893L19.6998 87.8893L19.6993 60.969H19.8993C23.8609 60.279 27.2139 57.6511 28.8297 53.9687L34.9994 40.8091C35.8031 39.1106 36.3427 37.2999 36.5997 35.4391L37.1698 31.3489H37.1693C38.4915 31.6017 39.6561 32.3765 40.3994 33.4987C41.4792 35.2385 41.4595 37.9186 40.3994 41.2484C38.7195 46.3186 38.1995 50.3385 38.8492 53.1986L38.8497 53.1991C39.0616 54.1394 39.5883 54.9798 40.3435 55.5799C41.0982 56.18 42.0353 56.5041 42.9993 56.499C47.0548 56.6111 51.1007 56.945 55.1195 57.4986L55.1192 57.4995ZM90.9992 33.9297C90.9992 36.3167 90.0512 38.6061 88.3636 40.2938C86.6754 41.9815 84.3865 42.93 81.9995 42.93H78.1797C77.6328 42.9294 77.1014 43.1083 76.6661 43.4391C76.2309 43.7694 75.9156 44.2336 75.7693 44.7598C74.8849 47.8244 74.8022 51.0644 75.5295 54.1698C71.7732 52.1188 68.92 48.7372 67.5295 44.6899C67.3693 44.1813 67.0514 43.7378 66.6213 43.423C66.1913 43.1077 65.6723 42.9387 65.1394 42.9397H50.2594C48.5645 42.9402 46.9043 42.4616 45.4694 41.5596C46.6495 37.2894 46.3796 33.6892 44.6496 30.8898H44.6491C43.8003 29.5288 42.6249 28.4009 41.2292 27.6096V14.0303C41.2292 11.6433 42.1772 9.35449 43.8654 7.66628C45.5531 5.9786 47.8425 5.0301 50.2295 5.0301H81.9995C84.3865 5.0301 86.6753 5.9786 88.3635 7.66628C90.0512 9.35449 90.9992 11.6433 90.9992 14.0303L90.9992 33.9297Z" fill="white"/>
<path d="M72.3189 16.4404L62.5987 26.1503L58.9985 22.6003C58.3663 21.9681 57.4447 21.721 56.5809 21.9526C55.7172 22.1837 55.0421 22.8587 54.8105 23.7225C54.5795 24.5862 54.826 25.5078 55.4587 26.1405L60.8287 31.5002C61.2976 31.9705 61.9344 32.2347 62.5986 32.2347C63.2628 32.2347 63.8996 31.9705 64.3684 31.5002L75.8487 19.9703C76.4809 19.3376 76.7279 18.416 76.4964 17.5523C76.2648 16.6886 75.5903 16.014 74.7265 15.7824C73.8628 15.5509 72.9412 15.7979 72.3085 16.4301L72.3189 16.4404Z" fill="white"/>
</svg>
