<svg width="93" height="101" viewBox="0 0 93 101" fill="none" xmlns="http://www.w3.org/2000/svg">
<path fill-rule="evenodd" clip-rule="evenodd" d="M66.3897 8.88349C68.5567 9.47354 70.632 10.363 72.5564 11.5264L75.3794 8.68556C75.835 8.22651 76.376 7.86234 76.9716 7.61387C77.5672 7.3654 78.2056 7.2375 78.8503 7.2375C79.495 7.2375 80.1334 7.3654 80.729 7.61387C81.3245 7.86234 81.8656 8.22651 82.3212 8.68556L84.369 10.7463C84.8252 11.2048 85.1871 11.7493 85.434 12.3486C85.6809 12.948 85.808 13.5904 85.808 14.2392C85.808 14.888 85.6809 15.5304 85.434 16.1298C85.1871 16.7291 84.8252 17.2736 84.369 17.7321L81.4303 20.6893C82.5093 22.6064 83.334 24.6574 83.8831 26.7902H88.106C89.4031 26.7933 90.6461 27.3131 91.5632 28.2361C92.4804 29.159 92.9969 30.4099 93 31.7151V34.6375C92.9969 35.9427 92.4804 37.1936 91.5632 38.1165C90.6461 39.0395 89.4031 39.5593 88.106 39.5624H83.8715C83.3246 41.6959 82.4998 43.7472 81.4188 45.6633L84.3574 48.6205C84.8136 49.079 85.1755 49.6235 85.4224 50.2228C85.6693 50.8222 85.7964 51.4646 85.7964 52.1134C85.7964 52.7622 85.6693 53.4046 85.4224 54.004C85.1755 54.6033 84.8136 55.1478 84.3574 55.6062L82.3096 57.667C81.854 58.1261 81.313 58.4903 80.7174 58.7387C80.1218 58.9872 79.4834 59.1151 78.8387 59.1151C78.194 59.1151 77.5556 58.9872 76.96 58.7387C76.3645 58.4903 75.8234 58.1261 75.3678 57.667L72.5564 54.8145C70.6357 55.9965 68.56 56.9018 66.3897 57.504V61.451C66.3836 62.7573 65.8645 64.0081 64.9455 64.9307C64.0265 65.8533 62.7823 66.3728 61.4842 66.3759H58.5802C57.2832 66.3728 56.0401 65.8529 55.123 64.93C54.2059 64.0071 53.6893 62.7562 53.6862 61.451V57.504C51.5164 56.9113 49.4377 56.0221 47.508 54.8611L44.685 57.6903C44.2294 58.1494 43.6883 58.5135 43.0928 58.762C42.4972 59.0105 41.8588 59.1384 41.2141 59.1384C40.5694 59.1384 39.931 59.0105 39.3354 58.762C38.7398 58.5135 38.1988 58.1494 37.7432 57.6903L35.6953 55.6295C35.2392 55.1711 34.8773 54.6266 34.6304 54.0272C34.3835 53.4279 34.2564 52.7855 34.2564 52.1367C34.2564 51.4879 34.3835 50.8454 34.6304 50.2461C34.8773 49.6468 35.2392 49.1023 35.6953 48.6438L38.634 45.6865C37.5519 43.7724 36.7308 41.7204 36.1928 39.5857H31.9815C30.6824 39.5857 29.4364 39.0672 28.5168 38.1439C27.5972 37.2206 27.079 35.968 27.0759 34.6608V31.7035C27.079 30.3962 27.5972 29.1436 28.5168 28.2203C29.4364 27.2971 30.6824 26.7785 31.9815 26.7786H36.2044C36.7495 24.6462 37.5702 22.5951 38.6456 20.6777L35.7069 17.7204C35.2507 17.2619 34.8889 16.7175 34.6419 16.1181C34.395 15.5188 34.2679 14.8764 34.2679 14.2276C34.2679 13.5788 34.395 12.9363 34.6419 12.337C34.8889 11.7377 35.2507 11.1932 35.7069 10.7347L37.7547 8.67392C38.2103 8.21487 38.7514 7.85069 39.347 7.60222C39.9425 7.35375 40.5809 7.22586 41.2256 7.22586C41.8704 7.22586 42.5088 7.35375 43.1043 7.60222C43.6999 7.85069 44.241 8.21487 44.6966 8.67392L47.5196 11.5148C49.4468 10.349 51.5263 9.45946 53.6978 8.87185V4.93657C53.6978 3.62932 54.213 2.37545 55.1305 1.45C56.0479 0.524545 57.2927 0.00308312 58.5918 0H61.4957C62.7958 0.00307478 64.0418 0.524163 64.9611 1.44928C65.8804 2.3744 66.3982 3.62825 66.4013 4.93657V8.88349H66.3897ZM6.47031 68.0874L1.84244 69.2517C1.2079 69.4245 0.667157 69.8431 0.338376 70.4159C0.1734 70.6975 0.0659105 71.0093 0.0222041 71.3332C-0.0215023 71.6571 -0.000546522 71.9865 0.0838434 72.3021L7.22234 99.0807C7.37616 99.7359 7.77906 100.304 8.3446 100.664H8.41402C8.98569 100.993 9.66206 101.085 10.2999 100.92L14.8583 99.6861C15.1745 99.6022 15.4711 99.4564 15.7312 99.2571C15.9913 99.0577 16.2098 98.8087 16.3742 98.5243C16.5386 98.2399 16.6457 97.9257 16.6893 97.5996C16.733 97.2736 16.7123 96.942 16.6285 96.624L9.50157 69.8571C9.41847 69.5385 9.27343 69.2397 9.07484 68.9779C8.87625 68.7161 8.62805 68.4965 8.3446 68.3319C8.06402 68.1678 7.75374 68.0617 7.43192 68.0197C7.1101 67.9777 6.78319 68.0007 6.47031 68.0874ZM63.0692 79.6255C63.0825 80.0863 63.0437 80.5472 62.9535 80.9993C62.7389 82.2752 62.1079 83.4428 61.1602 84.3175C60.1403 85.2081 58.9087 85.8178 57.5852 86.0872C56.275 86.3846 54.91 86.3283 53.6284 85.9242L33.2079 78.9385C33.002 78.8682 32.8119 78.7577 32.6484 78.6135C32.485 78.4692 32.3514 78.294 32.2552 78.0977C32.061 77.7014 32.0312 77.2438 32.1724 76.8253C32.3135 76.4069 32.6141 76.0621 33.0079 75.8667C33.4017 75.6712 33.8565 75.6413 34.2723 75.7833L54.6928 82.769C56.4514 83.3628 59.3206 82.4896 59.7024 80.4404C59.9262 79.3035 59.7206 78.1234 59.1258 77.1308C58.531 76.1382 57.5898 75.4045 56.4861 75.0731L33.0227 67.2724C23.8364 64.1987 23.0728 63.9425 13.227 70.9399L19.1623 93.2476C24.438 91.3032 31.403 93.1428 37.963 94.8776C43.8404 96.4377 49.3476 97.8931 51.9623 96.2049C64.4344 88.5555 77.6239 81.2787 90.3158 73.9088C91.3407 73.3144 92.089 72.3346 92.396 71.185C92.703 70.0354 92.5436 68.8102 91.9529 67.7788C91.3623 66.7475 90.3886 65.9945 89.2463 65.6856C88.1039 65.3766 86.8864 65.537 85.8615 66.1314L63.0692 79.6255ZM10.7627 93.4106C11.1339 93.3111 11.5262 93.3246 11.8899 93.4493C12.2535 93.574 12.5723 93.8044 12.8059 94.1114C13.0395 94.4183 13.1775 94.7881 13.2024 95.1739C13.2273 95.5597 13.1381 95.9443 12.9459 96.2791C12.7537 96.6139 12.4672 96.8839 12.1226 97.0549C11.7781 97.226 11.3909 97.2904 11.0099 97.2401C10.629 97.1898 10.2714 97.027 9.98233 96.7723C9.69327 96.5176 9.48571 96.1824 9.38587 95.809C9.31943 95.5605 9.30235 95.3013 9.33562 95.0462C9.36889 94.7911 9.45184 94.5451 9.57974 94.3223C9.70763 94.0995 9.87795 93.9043 10.0809 93.7478C10.2839 93.5914 10.5156 93.4768 10.7627 93.4106ZM66.4707 27.0463L56.6249 35.988L53.7209 32.5767C53.5948 32.4291 53.4411 32.308 53.2684 32.2203C53.0958 32.1325 52.9077 32.0799 52.7149 32.0653C52.522 32.0507 52.3282 32.0745 52.1445 32.1352C51.9608 32.196 51.7908 32.2926 51.6442 32.4195C51.4975 32.5464 51.3772 32.7011 51.29 32.8748C51.2028 33.0486 51.1505 33.2378 51.1359 33.4319C51.1214 33.626 51.1451 33.821 51.2055 34.0059C51.2659 34.1908 51.3619 34.3619 51.488 34.5094C52.7838 36.023 54.068 37.618 55.3985 39.0967C55.5273 39.2426 55.6834 39.3614 55.858 39.4463C56.0326 39.5311 56.2221 39.5804 56.4157 39.5912C56.6093 39.6021 56.8031 39.5742 56.9859 39.5093C57.1688 39.4444 57.3371 39.3438 57.4811 39.2131L68.507 29.2934C68.6637 29.1663 68.7931 29.0084 68.8871 28.8293C68.9812 28.6503 69.0379 28.4538 69.054 28.2519C69.0701 28.05 69.0451 27.8469 68.9805 27.655C68.916 27.4632 68.8132 27.2866 68.6786 27.136C68.5439 26.9855 68.3802 26.8641 68.1974 26.7794C68.0145 26.6946 67.8165 26.6483 67.6153 26.6431C67.414 26.638 67.2139 26.6742 67.0271 26.7496C66.8402 26.8249 66.6706 26.9378 66.5286 27.0813L66.4707 27.0463ZM60.038 16.6493C56.7993 16.6493 53.6332 17.6153 50.9399 19.4253C48.2465 21.2353 46.1467 23.808 44.9057 26.8185C43.6647 29.8289 43.3383 33.142 43.9676 36.339C44.5969 39.5361 46.1538 42.4737 48.4414 44.7808C50.7291 47.0878 53.645 48.6607 56.8206 49.3008C59.9963 49.9408 63.2892 49.6193 66.2833 48.3769C69.2775 47.1344 71.8385 45.0268 73.6428 42.3202C75.4471 39.6137 76.4138 36.4297 76.4206 33.1705C76.4206 28.798 74.6946 24.6047 71.6223 21.5129C68.5499 18.4211 64.3829 16.6842 60.038 16.6842V16.6493Z" fill="white"/>
</svg>
