<svg width="138" height="92" viewBox="0 0 138 92" fill="none" xmlns="http://www.w3.org/2000/svg">
<path fill-rule="evenodd" clip-rule="evenodd" d="M15.6135 46.856C14.4016 46.856 13.3009 46.0443 12.9451 44.888L2.92743 11.011C2.69394 10.1993 2.81624 9.33211 3.32768 8.63162C3.85023 7.94227 4.60631 7.53089 5.41797 7.4753L135.071 0.00368244C136.172 -0.0519121 137.161 0.526248 137.673 1.44908C138.195 2.37192 138.073 3.53936 137.439 4.4067L109.176 41.1187C108.709 41.7524 107.964 42.1638 107.153 42.1638L15.8253 46.8557H15.5918L15.6135 46.856ZM9.18708 12.7456L17.6373 41.243L105.541 36.729L129.345 5.80934L9.18737 12.7584L9.18708 12.7456Z" fill="white"/>
<path fill-rule="evenodd" clip-rule="evenodd" d="M19.6063 70.4266C16.5932 70.4266 13.5246 69.5594 10.9227 67.7026L1.24977 60.987C-0.0288599 60.1197 -0.317937 58.3852 0.560412 57.162C1.42766 55.8834 3.16213 55.5943 4.38531 56.4727L14.0583 63.1883C17.8832 65.8568 23.0308 65.4454 26.3331 62.2655L33.8047 55.0273C39.831 49.1789 49.4928 49.3568 55.2857 55.4275L60.2113 60.5199C63.9138 64.3448 69.8842 64.5113 73.8201 60.9202L79.1459 55.9946C82.3924 53.037 86.7288 51.5916 91.076 52.0587C95.4232 52.5257 99.3594 54.8383 101.905 58.3741C103.529 60.6868 105.964 62.0767 108.677 62.4324C111.401 62.7215 114.125 61.9099 116.204 60.0531L120.084 56.6398C121.24 55.6502 122.975 55.7169 123.965 56.8732C124.954 58.0296 124.887 59.764 123.731 60.7536L119.851 64.167C116.604 67.0022 112.324 68.3921 108.032 67.8695C103.751 67.3469 99.8708 65.0899 97.3803 61.554C95.757 59.297 93.2665 57.7849 90.4867 57.4957C87.7071 57.2067 84.9276 58.1295 82.8372 60.0419L77.5115 64.9674C71.3742 70.6379 61.9901 70.4156 56.1973 64.3893L51.2717 59.2969C47.5692 55.4165 41.365 55.3055 37.5515 59.0634L30.0799 66.2459C27.1892 68.9699 23.4201 70.4152 19.5952 70.4152L19.6063 70.4266Z" fill="white"/>
<path fill-rule="evenodd" clip-rule="evenodd" d="M19.607 91.276C16.5938 91.276 13.5252 90.4087 10.8679 88.552L1.19489 81.8363C-0.083734 80.9691 -0.372806 79.2346 0.505544 78.0114C1.37279 76.7328 3.10726 76.4437 4.33044 77.3221L14.0034 84.0377C17.8283 86.7061 22.9759 86.2948 26.2782 83.1149L33.7498 75.8766C39.7761 70.0283 49.438 70.2062 55.2308 76.2769L60.1564 81.3693C63.8589 85.1942 69.8294 85.3607 73.7653 81.7695L79.091 76.8439C82.3376 73.8863 86.6739 72.441 91.0211 72.908C95.3683 73.3751 99.3046 75.6876 101.851 79.2235C103.474 81.5361 105.909 82.926 108.622 83.2818C111.346 83.5708 114.07 82.7592 116.149 80.9024L120.029 77.4891C121.186 76.4995 122.92 76.5663 123.91 77.7226C124.899 78.8789 124.832 80.6133 123.676 81.603L119.796 85.0163C116.549 87.8515 112.269 89.2414 107.977 88.7188C103.696 88.1962 99.8159 85.9392 97.3254 82.4034C95.7021 80.1463 93.2116 78.6342 90.4319 78.3451C87.6523 78.056 84.8727 78.9788 82.7823 80.8912L77.4566 85.8168C71.3193 91.4872 61.9353 91.2649 56.1424 85.2386L51.2168 80.1463C47.5143 76.2659 41.3102 76.1548 37.4967 79.9128L30.025 87.0952C27.1898 89.8192 23.4207 91.2645 19.5958 91.2645L19.607 91.276Z" fill="white"/>
<path fill-rule="evenodd" clip-rule="evenodd" d="M11.2099 32.0919C9.76454 32.0919 8.60822 30.9912 8.48591 29.5458C8.37473 28.0448 9.53105 26.7106 11.032 26.5882L63.7888 22.5968C65.2898 22.4856 66.624 23.6419 66.7464 25.1429C66.8576 26.6439 65.7013 27.9781 64.2003 28.1005L11.4435 32.0919H11.2099Z" fill="white"/>
<path fill-rule="evenodd" clip-rule="evenodd" d="M83.1371 29.0209C81.4582 29.0209 79.8906 28.4427 78.6231 27.3976C77.1221 26.1857 76.2438 24.4399 76.0214 22.5389C75.6212 18.603 78.5119 15.0673 82.4479 14.7226C86.3838 14.3223 89.9195 17.2131 90.2642 21.149C90.4421 23.0614 89.8639 24.9181 88.6409 26.4193C87.429 27.9203 85.6833 28.7986 83.7822 29.021H83.1484L83.1371 29.0209ZM82.9592 20.2149C82.0364 20.3261 81.3915 21.1377 81.4582 22.005C81.5138 22.4719 81.6917 22.8722 82.0364 23.1057C82.3811 23.3948 82.7924 23.506 83.2483 23.4504C83.7153 23.3948 84.1156 23.2169 84.349 22.8722C84.6381 22.5276 84.7493 22.1162 84.6937 21.6603C84.6937 20.7931 83.8821 20.0926 82.9592 20.2149Z" fill="white"/>
<path fill-rule="evenodd" clip-rule="evenodd" d="M99.0595 27.4552C97.3806 27.4552 95.813 26.877 94.5455 25.8319C93.0445 24.62 92.1661 22.8743 91.9438 20.9732C91.5435 17.0373 94.4343 13.5016 98.3702 13.1569C102.306 12.7566 105.842 15.6474 106.187 19.5833C106.364 21.4957 105.786 23.3525 104.563 24.8536C103.351 26.3546 101.606 27.233 99.7045 27.4553H99.0708L99.0595 27.4552ZM98.8816 18.6492C97.9587 18.7604 97.3139 19.572 97.3806 20.4393C97.4362 20.9063 97.6141 21.3066 97.9587 21.54C98.3034 21.7735 98.7148 21.9403 99.1707 21.8847C99.6376 21.8291 100.038 21.6512 100.271 21.3065C100.56 20.9619 100.672 20.5505 100.616 20.0946C100.616 19.2274 99.8044 18.5269 98.8816 18.6492Z" fill="white"/>
</svg>
